<?xml version="1.0" encoding="UTF-8"?>
<svg id="Layer_1" data-name="Layer 1" xmlns="http://www.w3.org/2000/svg" viewBox="0 0 4000 4000">
  <defs>
    <style>
      .cls-1 {
        opacity: .7;
      }

      .cls-2 {
        fill: #fff;
      }

      .cls-3 {
        fill: #111a28;
      }

      .cls-4 {
        fill: #848484;
      }

      .cls-5 {
        opacity: .5;
      }

      .cls-6 {
        fill: #e2e2e2;
      }

      .cls-7 {
        opacity: .35;
      }

      .cls-8 {
        fill: #b8c5d3;
      }

      .cls-9 {
        fill: #102770;
      }

      .cls-10 {
        opacity: .3;
      }

      .cls-11 {
        fill: #945cc6;
      }

      .cls-12 {
        fill: #22a7f0;
      }

      .cls-13 {
        fill: #ffce00;
      }

      .cls-14 {
        fill: #999;
      }

      .cls-15 {
        fill: #00c9ff;
      }

      .cls-16 {
        fill: #371a45;
      }

      .cls-17 {
        fill: #fff5a4;
      }

      .cls-18 {
        fill: #7a7a7a;
      }
    </style>
  </defs>
  <path class="cls-2" d="m1831.71,2697.48l101.69,121.11,40.9,48.74c150.96-97.41,204.64-217.63,201.42-324.14-1.53-51.57-16.36-99.93-39.95-140.95-76.49-133.19-216.68-198.44-276.39-89.11-64.34,117.86,20.68,174.55,45.15,211.06,34.41,51.3,17.66,144.08-72.82,173.29Z"/>
  <g class="cls-7">
    <path class="cls-16" d="m1933.4,2818.58l40.9,48.74c150.96-97.41,204.64-217.63,201.42-324.14-24.16,77.11-89.26,224.86-242.33,275.4Z"/>
  </g>
  <path class="cls-16" d="m1974.32,2882.61c-5.02,0-9.94-2.47-12.86-7-4.58-7.09-2.54-16.56,4.56-21.14,221.85-143.12,222.97-328.96,156.51-444.62-46.32-80.62-118.9-136.64-176.86-136.64-.33,0-.64,0-.97,0-30.76.33-54.95,16.23-71.89,47.25-48.01,87.93-5.23,136.8,26,172.49,7,7.99,13.6,15.54,18.42,22.73,20.24,30.2,24.77,72.15,11.81,109.5-14.35,41.36-47.25,72.19-92.62,86.83-8.04,2.6-16.65-1.82-19.25-9.86-2.59-8.04,1.82-16.66,9.86-19.25,36.02-11.62,61.99-35.68,73.12-67.75,9.88-28.46,6.69-60.05-8.32-82.44-3.73-5.56-9.43-12.07-16.03-19.62-32.94-37.63-88.08-100.62-29.83-207.29,22.32-40.87,56.34-62.71,98.4-63.17,69.7-.71,152.01,60.32,204.68,151.98,41.49,72.21,52.82,156.37,31.91,236.97-24.59,94.77-93.18,180.73-198.36,248.58-2.56,1.65-5.43,2.44-8.27,2.44Z"/>
  <path class="cls-16" d="m2056.04,2677.11c-2.52,0-5.04-.04-7.56-.11-57.53-1.73-107.3-22.68-140.14-58.99-4.69-5.18-4.28-13.17.89-17.86,5.18-4.69,13.17-4.29,17.86.9,38.02,42.03,92.85,49.79,122.15,50.67,49.44,1.51,91.82-13.09,106.6-27.57,4.99-4.89,12.99-4.81,17.88.18,4.89,4.99,4.81,13-.18,17.88-21.37,20.93-68.91,34.89-117.5,34.89Z"/>
  <path class="cls-2" d="m1231,2806.17c-50.98,73.52-32.52,336.65,31.32,475.91,63.84,139.26,322.87,65.05,467.38,11.73,144.52-53.32,34.05-383.43,2.69-471.27-48.98-137.16-425.84-125.32-501.38-16.38Z"/>
  <g class="cls-7">
    <path class="cls-16" d="m1729.7,3293.82c-144.51,53.32-403.54,127.51-467.4-11.74-8.34-18.24-15.94-38.59-22.66-60.37,50.9,18.29,97.71-28.65,91.58-69.69-37.85-253.32,20.72-374.87,53.37-420.67,137.55-25.33,315.22-.06,347.78,91.22,31.39,87.82,141.85,417.94-2.67,471.25Z"/>
  </g>
  <path class="cls-16" d="m1425.85,3377.38c-81.2,0-147.59-23.81-177.43-88.92-67.51-147.28-83.76-413.43-29.98-491h0c51.58-74.39,218.59-102.56,343.75-85.99,99.34,13.15,164.9,50.77,184.6,105.94,57.32,160.51,132.01,437.7-11.79,490.76-100.2,36.97-214.69,69.21-309.14,69.21Zm-182.28-562.49c-47.23,68.11-28.92,326.52,32.65,460.83,57.69,125.85,305.57,56.37,448.19,3.76,127.01-46.86,27.2-357.64-6.42-451.78-15.42-43.19-73.68-74.5-159.82-85.9-131.04-17.37-275.1,16.13-314.6,73.1h0Z"/>
  <path class="cls-2" d="m1326.06,3043.85l-73.43-4.26c-16.6-.96-30.33,12.82-29.2,29.41,3.87,57.07,19.15,172.94,79.43,177.63,73.06,5.69,71.17-75.78,48.62-181.06-2.6-12.13-13.04-21-25.42-21.72Z"/>
  <g class="cls-7">
    <path class="cls-16" d="m1351.3,3065.45c22.79,105.23,24.87,186.71-48.2,181.17-30-2.24-48.93-32.1-60.83-68.54,8.81,8.63,19.15,14.14,31.36,15.05,65.41,4.93,70.63-59.87,54.57-149.05,11.36,1.52,20.68,10.03,23.1,21.37Z"/>
  </g>
  <path class="cls-16" d="m1309.9,3259.53c-2.52,0-5.1-.1-7.75-.3-68.44-5.17-86.7-120.74-91.49-189.18-.81-11.5,3.38-22.81,11.48-31.03,8.12-8.24,19.36-12.61,30.97-11.95l73.44,4.09c18.05,1.01,33.32,14.01,37.13,31.61,20.74,95.83,19.17,148.69-5.28,176.77-11.57,13.28-27.86,19.99-48.49,19.99Zm-59.08-207.24c-4.05,0-7.81,1.57-10.68,4.48-3.05,3.1-4.57,7.18-4.26,11.51,7.09,101.08,32.57,163.04,68.17,165.73,16.17,1.2,27.71-2.4,35.27-11.08,26.55-30.49,6.29-124.06-.36-154.81-1.41-6.52-7.09-11.34-13.82-11.71l-73.44-4.09c-.29-.02-.59-.02-.88-.02Z"/>
  <path class="cls-16" d="m1220.61,2815.73c9.11.94,17.86,2.06,26.73,3.26,8.84,1.21,17.65,2.53,26.43,3.97,17.56,2.9,35.04,6.27,52.15,10.64-17.64.66-35.09,2.37-52.46,4.53-8.69,1.1-17.35,2.3-25.98,3.62-8.6,1.32-17.32,2.74-25.67,4.3-8.32,1.56-16.33-3.93-17.89-12.26-1.56-8.32,3.93-16.33,12.26-17.89,1.46-.27,2.91-.33,4.32-.19h.1Z"/>
  <path class="cls-2" d="m1881.9,2731.82l-35.55-106.04c9.62,37.4,21.82,72.85,35.55,106.04Z"/>
  <path class="cls-2" d="m2276.32,3417.9s-71.5-49.78-149.71-82.75c-51.28-21.63-105.44-36.03-144.23-24.44,0,0-306.32,199.42-483.05-187.31-56.06-122.67-71.86-215.79-61.57-286.41,1.44-9.93,3.41-19.38,5.85-28.43,2.54-9.56,5.67-18.63,9.26-27.26,9.86-23.76,23.37-44.07,39.56-61.43,12.3-13.15,26.14-24.61,41.07-34.59,138.47-92.35,373.69-57.27,373.69-57.27,2.5,17.55,5.39,34.54,8.62,50.95,6.09,31.15,13.32,60.22,21.37,87.27,2.33,7.8,4.69,15.41,7.15,22.85,28.73,87.76,65.4,152.5,95.69,196.01,32.57,46.81,57.77,69.1,57.77,69.1,212.52-43.88,258.41,134.45,258.41,134.45,0,0,150.64-102.32,152.61,39.31,1.48,104.78-147.64,242.64-232.48,189.95Z"/>
  <g class="cls-7">
    <path class="cls-16" d="m2276.32,3417.9s-195.97-136.47-293.95-107.19c0,0-306.32,199.42-483.05-187.31-56.06-122.67-71.86-215.79-61.57-286.41,2.97-20.4,8.11-38.91,15.11-55.69,2.76-6.65,5.78-13,9.08-19.1-1.24,5.66-2.31,11.46-3.17,17.43-10.29,70.62,5.51,163.74,61.57,286.41,176.73,386.72,472.59,149.65,472.59,149.65,166.66-54.14,225.3,122.93,294.35,154.62,69.05,31.69,174.93-38.9,219.73-120.2-17.08,100.8-151.74,216.81-230.7,167.78Z"/>
  </g>
  <path class="cls-16" d="m1958.28,2810.32c10.16,21.33,19.82,42.69,30.78,63.38l8.1,15.55c2.72,5.16,5.73,10.18,8.49,15.31,5.46,10.31,11.73,20.13,17.53,30.22,12.22,19.8,25.2,39.05,38.9,57.69,6.86,9.31,14.05,18.36,21.46,27.15,3.62,4.48,7.42,8.76,11.22,13.02,3.78,4.13,7.85,8.54,11.39,12.06l-10.93-2.91h0c27.21-5.63,55.35-8.35,83.63-6.54,28.22,1.65,56.64,8.49,82.44,21.26,25.94,12.54,48.64,31.36,66.7,53.45,9.06,11.06,16.99,22.97,23.72,35.51,3.43,6.24,6.47,12.68,9.28,19.25,1.41,3.28,2.72,6.61,3.95,10.01,1.27,3.48,2.34,6.62,3.48,10.76l-19.35-7.31c16.43-10.68,32.88-19.29,50.89-26.46,8.96-3.52,18.26-6.54,28.01-8.64,9.75-2.08,20-3.31,30.76-2.52,10.67.77,22.13,3.93,31.83,10.65,9.77,6.63,16.82,16.36,21.19,26.15,4.47,9.85,6.93,19.98,8.13,29.83l.91,7.41.36,7.32c.38,4.81.21,9.88.01,14.95-1.19,20.15-6.86,39.2-14.38,56.99-7.78,17.71-17.67,34.2-28.96,49.54-11.29,15.35-24.07,29.52-38.16,42.33-14.08,12.81-29.41,24.37-46.16,34-16.86,9.36-35.06,17.23-55.01,20.59-9.89,1.9-20.31,2.09-30.67,1.19-10.44-.98-20.69-4.11-30.39-8.66l-7.22-3.93c-.55-.27-1.28-.75-1.8-1.13l-1.36-.93-2.76-1.87-11.23-7.38c-7.54-4.87-15.17-9.64-22.85-14.33-15.38-9.33-30.99-18.3-46.81-26.79-31.66-16.91-64.24-32.17-97.78-43.33-16.75-5.53-33.77-9.97-50.74-12.33-16.93-2.46-33.87-2.13-48.87,1.99l-.52.14c-6.73,1.85-13.69-2.11-15.54-8.84-1.85-6.73,2.08-13.68,8.81-15.53,20.18-5.59,40.46-5.51,59.5-2.82,19.13,2.66,37.48,7.51,55.3,13.38,35.61,11.87,69.22,27.67,101.79,45.05,16.27,8.73,32.26,17.91,48.01,27.47,7.87,4.8,15.68,9.69,23.44,14.69l11.6,7.62,2.9,1.96,1.46,1c.4.29.62.43,1.1.66l4.8,2.56c6.76,3.1,14.13,5.5,21.87,6.18,7.74.62,15.71.61,23.73-.97,16.05-2.66,31.87-9.36,46.75-17.64,29.61-17.22,55.91-41.44,76.5-69.38,10.29-13.98,19.22-28.92,26.1-44.57,6.64-15.68,11.41-32.11,12.34-48.38.13-4.04.32-8.06-.03-12.35l-.3-6.33-.77-6.14c-.96-8.2-3-15.96-6.05-22.67-3.02-6.76-7.2-12.26-12.56-15.89-5.33-3.68-11.99-5.7-19.42-6.26-14.96-1.07-31.75,3.26-47.61,9.49-15.85,6.24-31.82,14.66-45.91,23.83l-14.66,9.54-4.69-16.85c-.66-2.35-1.71-5.6-2.76-8.44-1.06-2.93-2.21-5.86-3.46-8.76-2.48-5.8-5.19-11.55-8.25-17.1-6-11.18-13.06-21.77-21.06-31.53-15.98-19.51-35.71-35.86-58.31-46.76-22.48-11.11-47.43-17.21-72.89-18.7-25.47-1.64-51.4.79-76.88,6.07h0s-6.08,1.28-6.08,1.28l-4.86-4.19c-5.19-4.49-9.38-8.58-13.73-13.07-4.25-4.44-8.48-8.88-12.47-13.47-4.1-4.53-7.92-9.27-11.7-14.02-3.87-4.7-7.49-9.57-11.14-14.41-14.61-19.38-27.46-39.92-39.39-60.91-5.72-10.62-11.54-21.19-16.62-32.12-5.38-10.78-10.12-21.85-14.72-32.96-2.35-5.53-4.51-11.14-6.52-16.8l-6.21-16.9c-2.07-5.63-3.59-11.46-5.41-17.16-1.77-5.73-3.48-11.46-5.1-17.22-.95-3.37,1.02-6.87,4.39-7.81,3.02-.85,6.13.64,7.43,3.37l.08.16Z"/>
  <path class="cls-2" d="m2236.88,3594.65c-26.45,66.5-119.21,108.3-200.59,70.45-53.78-25.01-86.3-69.89-104.59-107.76-21.36-44.29-35.99-89.64-75.02-110.28-44.51-23.52-125.72,57.39-276.95-28.65-47.17-26.81-102.02-84.17-143.19-169.12-13.29-27.39-25.14-57.63-34.84-90.68-21-71.37-32-155.73-25.78-252.09,2.72-41.8,8.68-85.88,18.48-132.12,4.53-21.47,9.91-43.39,16.17-65.78,8.41-30.07,18.39-61,30.15-92.72l38.58,77.62,13.12,26.36,9.45,18.96,59.04,118.77,90.24,181.51,105.35,211.87,7.3,14.69c11.06-11.22,23.05-21.46,35.76-30.6,38.72-27.78,84.24-45.28,132.01-49.13,1.02-.09,2-.16,3.01-.22,22.35-1.52,45.51-.15,67.54,6.28,62.83,18.35,111.97,85.35,124.51,143.16,3.55,16.27,4.2,31.78,1.43,45.29-4.99,24.23-10.02,50.92-10.02,50.92,17.71,8.86,149.07,87.35,118.87,163.29Z"/>
  <g class="cls-7">
    <path class="cls-16" d="m2236.88,3594.65c-26.45,66.5-119.21,108.3-200.59,70.45-53.78-25.01-86.3-69.89-104.59-107.76-21.36-44.29-35.99-89.64-75.02-110.28-44.51-23.52-125.72,57.39-276.95-28.65-47.17-26.81-102.02-84.17-143.19-169.12-1.85-3.83-3.69-7.72-5.49-11.69-1.41-3.1-2.82-6.23-4.18-9.4-.79-1.8-1.58-3.6-2.36-5.43-2.52-5.96-4.95-12.05-7.36-18.25-.58-1.52-1.15-3.08-1.72-4.63-.67-1.78-1.33-3.52-1.95-5.26-.7-1.96-1.4-3.89-2.07-5.84-2.09-5.9-4.09-11.91-5.99-18.01-1.29-4.01-2.51-8.07-3.72-12.16-40.04-136.07-43.74-319.25,39.03-542.71l3.57,7.17c-68.69,234.18-40.73,418.97,17.83,545.42,82.47,1.2,165.65-40.39,189.15-53.16l-8.67-23.3c-6.9-18.49-2.99-38.47,8.54-52.91,3.77-4.77,8.37-8.91,13.67-12.23,3.02-1.92,6.3-3.5,9.79-4.81l236.72-88.11c28.06-10.46,59.55,3.93,69.98,32.01l8.98,24.13c1.58-.71,3.19-1.3,4.88-1.82,25.26-7.73,51.97,6.47,59.67,31.72,7.68,25.07-6.29,51.63-31.26,59.53l4.64,12.43c10.43,28.05-4.01,59.51-32.03,69.94l-64.64,24.04-132.01,49.13-40.11,14.94c-.98.36-1.96.7-2.95.97-27.25,8.45-56.9-5.9-67-32.97l-7.05-18.93c-72.53,31.84-131.18,44.97-174.19,49.7,32.77,46.41,68.84,79.29,101.29,97.74,151.23,86.04,232.44,5.14,276.92,28.65,39.06,20.64,53.69,66,75.05,110.29,18.29,37.86,50.8,82.75,104.59,107.76,63.62,29.6,134.23,10.5,174.62-31.03,1.51,10.75.49,21.65-3.83,32.47Z"/>
  </g>
  <path class="cls-16" d="m1760.18,3262.12c28.11-38.74,70.53-67.44,117.41-81.88,11.72-3.66,23.72-6.59,35.93-8.36,12.19-1.91,24.48-3.08,36.91-3.02,12.43,0,24.99.96,37.47,3.2,6.24,1.13,12.47,2.54,18.6,4.39,6.08,2.26,12.3,4.31,18.2,6.9,23.53,10.74,43.64,26.64,60.61,44.77,16.93,18.25,30.76,38.98,41.41,61.4,10.52,22.43,18.04,46.87,18,73.48.36,6.56-.96,13.44-1.8,20.18l-3.33,17.03-6.67,33.96-8.12-16.38c5.26,2.71,9.52,5.25,14.02,7.97,4.44,2.68,8.76,5.47,13.06,8.3,8.57,5.69,16.93,11.67,25.09,17.98,16.27,12.66,31.89,26.45,45.73,42.67,13.63,16.19,26.31,34.91,31.68,58.21,2.61,11.55,2.89,24.24,0,36.25-1.41,5.98-3.6,11.9-6.05,16.75l-3.62,7.64c-1.36,2.45-2.9,4.78-4.36,7.17-11.85,18.99-28.08,34.6-46.39,46.45-18.35,11.85-38.88,20.02-60.23,24.17-21.34,4.16-43.54,4.23-64.94,0-21.42-4.22-41.91-12.8-60.02-23.81-36.65-22.37-65.3-55.6-85.02-92.45-9.93-18.69-17.33-36.95-25.79-54.39-8.3-17.36-17.45-33.56-29.34-45.74-5.83-6.02-12.76-11.21-19.6-14.71-4.84-2.49-12.15-2.97-20.78-1.99-17.37,2.14-37.21,7.84-57.45,11.25-20.32,3.57-41.47,5.49-62.56,4.45-21.1-.89-42.02-4.6-62.11-10.49-20.12-5.85-39.43-13.82-57.8-23.23-4.61-2.34-9.08-4.88-13.62-7.31-4.53-2.43-9.07-5.46-13.59-8.17-4.46-2.86-8.66-6.01-12.99-9.02-4.24-3.11-8.23-6.47-12.35-9.7-32.02-26.78-58.5-58.75-80.75-93.07-22.15-34.42-40.33-71.19-54.29-109.42-14.09-38.18-24.41-77.65-31.21-117.63-13.66-80.05-13.04-161.83-2.56-241.76l4.28-29.95c1.53-9.96,3.49-19.85,5.12-29.8,1.57-9.97,3.67-19.82,5.9-29.65l3.37-14.74c1.07-4.93,2.34-9.8,3.82-14.62,2.74-9.69,5.71-19.32,8.69-28.92,3.13-9.56,6.74-18.97,10.55-28.3,1.93-4.65,3.7-9.35,5.78-13.94,2.16-4.56,4.28-9.13,6.65-13.61,4.55-9.02,9.43-17.89,14.87-26.5,1.52-2.41,4.72-3.13,7.13-1.61,1.75,1.11,2.61,3.1,2.37,5.03v.09c-5.22,40.17-15.94,77.68-24.78,115.83-2.55,9.44-4.39,19.04-6.77,28.51-2.3,9.5-4.72,18.97-6.56,28.55-1.96,9.56-4.14,19.1-5.74,28.73l-4.59,28.92c-10.13,77.33-10.68,156.06,2.4,232.64,6.51,38.25,16.37,75.9,29.75,112.18,13.26,36.34,30.5,71.12,51.3,103.46,20.86,32.23,45.69,62,74.61,86.18,3.7,2.88,7.3,5.93,11.06,8.69,3.83,2.63,7.56,5.46,11.45,7.95,3.99,2.37,7.7,4.9,11.91,7.16,4.2,2.24,8.36,4.61,12.6,6.76,16.94,8.67,34.49,15.89,52.49,21.12,36.04,10.84,73.58,12.17,110.93,5.28,9.39-1.63,18.81-3.7,28.53-5.84,9.74-2.11,19.74-4.38,30.84-5.69,5.63-.54,11.44-1.01,17.88-.36,6.32.63,13.22,1.98,19.63,5.29,10.84,5.53,19.87,12.54,27.89,20.71,15.88,16.37,26.17,35.5,34.99,53.79,8.84,18.28,16.45,36.83,25.18,53.19,17.65,32.98,42.82,61.84,74.13,80.94,4,2.22,7.85,4.73,12,6.66l6.14,3.07,6.24,2.48c4.14,1.69,8.26,3.47,12.63,4.47,4.32,1.12,8.53,2.71,12.99,3.23,17.51,3.46,35.73,3.43,53.33,0,35.1-6.74,68.25-27.36,86.67-56.88,1.12-1.85,2.35-3.65,3.4-5.52l2.72-5.83c2.04-4,3.24-7.48,4.12-11.13,1.73-7.3,1.64-14.94-.09-22.72-3.48-15.63-13.27-31.15-25.13-45.07-11.93-14.01-26.19-26.68-41.22-38.36-7.54-5.83-15.33-11.4-23.29-16.69-3.99-2.62-8.01-5.22-12.06-7.67-3.98-2.42-8.27-4.93-11.84-6.76l-10.29-5.3,2.18-11.08,6.73-34.28,3.34-17.09c.42-4.77,1.56-9.32,1.2-14.4.38-9.87-1.78-20.23-4.04-30.41-1.64-5.04-2.95-10.17-4.86-15.16-2.12-4.92-3.67-10.05-6.24-14.81-9.14-19.48-21.59-37.61-36.36-53.16-14.74-15.57-32.1-28.47-51.01-36.59-18.56-8-39.99-11.26-61.39-11.17-21.54.23-43.32,2.84-64.37,8.47-42.31,11.1-81.72,32.06-118.74,59.29l-.03.02c-2.28,1.67-5.48,1.19-7.15-1.09-1.35-1.84-1.29-4.28-.02-6.04Z"/>
  <path class="cls-16" d="m1871.38,3469.49c-4.91,0-9.58-2.88-11.64-7.68-34.9-81.78,1.6-167.35,53.24-215.87,46.92-44.08,104.81-57.01,151.09-33.76,6.24,3.14,8.76,10.74,5.62,16.98-3.14,6.24-10.74,8.76-16.98,5.62-37.09-18.64-82.86-7.57-122.42,29.59-43.77,41.12-77.24,117.34-47.29,187.51,2.74,6.42-.25,13.85-6.67,16.59-1.62.69-3.3,1.02-4.96,1.02Z"/>
  <path class="cls-16" d="m2127.57,3437.71c-8.3,10.28-16.81,18.92-26.13,27.37-9.27,8.33-19.15,16-29.81,22.51-10.61,6.5-22.07,11.86-34.15,14.83-12.03,3.07-24.73,3.29-36.38.27,12.03,1.13,23.9-1.09,34.59-5.71,10.74-4.54,20.43-11.15,29.23-18.68,8.82-7.53,16.78-16.06,24.07-25.08,7.2-8.94,14.11-18.78,19.49-28.22l.12-.22c3.15-5.53,10.18-7.45,15.71-4.3,5.53,3.15,7.45,10.18,4.3,15.71-.3.53-.68,1.07-1.04,1.53Z"/>
  <path class="cls-16" d="m2168.95,3367.39c-4.27,0-8.44-2.16-10.82-6.08-41.49-68.23-54.42-132.44-38.41-190.84,22.95-83.74,96.85-123.92,99.98-125.59,6.16-3.28,13.82-.95,17.1,5.21,3.28,6.16.95,13.81-5.2,17.09h0c-.67.36-67.67,37.08-87.58,110.24-13.98,51.36-1.96,108.81,35.71,170.75,3.63,5.97,1.73,13.75-4.23,17.37-2.05,1.25-4.32,1.84-6.56,1.84Z"/>
  <circle class="cls-2" cx="2010.43" cy="2990.86" r="47.79" transform="translate(-1484.3 3870.61) rotate(-70.22)"/>
  <g class="cls-7">
    <path class="cls-16" d="m2056.11,2976.88c7.72,25.24-6.46,51.97-31.69,59.69-25.24,7.72-51.98-6.49-59.7-31.73-2.13-6.97-2.6-14.09-1.58-20.88,12.06,13.19,31.09,19.08,49.32,13.5,18.23-5.58,30.71-21.11,33.29-38.78,4.64,5.05,8.24,11.22,10.37,18.19Z"/>
  </g>
  <path class="cls-16" d="m2010.46,3051.3c-25.87,0-49.87-16.76-57.82-42.76-9.75-31.87,8.25-65.72,40.11-75.47,31.86-9.74,65.72,8.25,75.47,40.11h0c9.75,31.86-8.25,65.72-40.11,75.46-5.87,1.8-11.8,2.65-17.64,2.65Zm-.06-95.58c-3.4,0-6.85.5-10.26,1.54-18.53,5.67-28.99,25.36-23.33,43.89,5.67,18.53,25.37,29,43.89,23.32,18.53-5.67,28.99-25.36,23.32-43.88h0c-4.62-15.12-18.58-24.87-33.63-24.87Z"/>
  <path class="cls-2" d="m1997.47,3118.8l-236.76,88.12c-28.02,10.44-59.5-3.95-69.95-32.01l-46.88-125.99c-9.14-24.56.77-51.74,22.21-65.13,3.03-1.92,6.31-3.52,9.8-4.83l236.73-88.11c28.06-10.45,59.54,3.94,69.95,32.01l37.16,99.78,9.76,26.2c10.45,28.06-3.99,59.52-32.01,69.95Z"/>
  <g class="cls-7">
    <path class="cls-16" d="m1997.47,3118.8l-236.76,88.12c-28.02,10.44-59.5-3.95-69.95-32.01l-46.88-125.99c-9.14-24.56.77-51.74,22.21-65.13,16.77,3.92,27.43,6.46,27.43,6.46,49.17,96.84,72.63,173.47,225.67,104.67,52.76-23.72,83.09-53.11,100.54-72.27l9.76,26.2c10.45,28.06-3.99,59.52-32.01,69.95Z"/>
  </g>
  <path class="cls-16" d="m1741.85,3222.99c-9.52,0-19.02-2.06-27.96-6.15-16.32-7.47-28.74-20.79-34.97-37.52l-46.9-126.01c-6.23-16.73-5.54-34.93,1.93-51.25,7.47-16.32,20.79-28.74,37.52-34.97l236.74-88.12c34.65-12.88,73.33,4.8,86.22,39.45l46.9,126.01c12.89,34.65-4.8,73.33-39.45,86.22l-236.74,88.12c-7.57,2.81-15.44,4.22-23.3,4.22Zm189.7-322.93c-4.83,0-9.73.84-14.52,2.62l-236.74,88.12c-10.4,3.87-18.69,11.61-23.34,21.79-4.66,10.18-5.09,21.51-1.22,31.91l46.9,126.01c3.87,10.4,11.61,18.69,21.78,23.34,10.18,4.66,21.51,5.09,31.91,1.22l236.74-88.12c21.58-8.03,32.6-32.12,24.57-53.7l-46.9-126.01c-6.25-16.79-22.23-27.19-39.18-27.19Z"/>
  <path class="cls-2" d="m2006.63,3114.33c-2.83,1.78-5.87,3.26-9.16,4.47l-236.76,88.12c-20.54,7.63-42.92,1.97-57.53-12.7-5.32-5.32-9.62-11.83-12.38-19.32l-20.85-55.97-6.88-18.47-19.19-51.55c-10.45-28.06,3.99-59.52,32.01-69.95l51.16-19.03c-21.93,13.22-32.15,40.69-22.93,65.51l25.31,68.06,21.59,57.97c10.44,28.02,41.93,42.45,69.95,32.01l185.66-69.15Z"/>
  <g class="cls-7">
    <path class="cls-16" d="m2006.63,3114.33c-2.83,1.78-5.87,3.26-9.16,4.47l-236.76,88.12c-28.02,10.44-59.5-3.95-69.92-32.02l-27.73-74.43c10.85,10.94,27.56,23.1,45.31,18.42,9.74-2.54,16.47-12.74,21.06-25.39l21.59,57.97c10.44,28.02,41.93,42.45,69.95,32.01l185.66-69.15Z"/>
  </g>
  <path class="cls-16" d="m1741.85,3222.99c-9.51,0-19.01-2.06-27.95-6.15-16.33-7.47-28.75-20.8-34.97-37.53l-46.89-126c-6.23-16.72-5.55-34.92,1.92-51.25,7.47-16.32,20.79-28.74,37.51-34.97l51.15-19.03,10.95,22.67c-17.18,10.37-24.57,31.53-17.58,50.3l46.9,126.01c3.86,10.4,11.6,18.69,21.78,23.35,10.18,4.66,21.5,5.1,31.88,1.22l185.69-69.13,11.06,22.61c-3.63,2.24-7.49,4.12-11.48,5.58l-236.69,88.1c-7.56,2.82-15.42,4.22-23.28,4.22Zm-50.79-236.21l-10.76,4c-10.39,3.87-18.69,11.62-23.34,21.8-4.66,10.18-5.09,21.51-1.22,31.9l46.9,126.02c3.86,10.4,11.6,18.69,21.78,23.35,10.18,4.66,21.5,5.09,31.88,1.22l12.25-4.56c-13.57-7.78-23.88-19.9-29.37-34.66l-46.9-126c-5.3-14.25-5.45-29.35-1.22-43.07Z"/>
  <path class="cls-12" d="m1821.3,3054.73c1.71,4.67,8.93,44.76,8.93,44.76,0,0-11.94,4.37-26.6,9.73-18.32,6.7-40.1-6.84-48.66-30.23-8.56-23.4-.64-47.79,17.68-54.49,12.36-4.52,26.6-9.73,26.6-9.73,0,0,19.27,32.35,22.05,39.96Z"/>
  <g class="cls-7">
    <path class="cls-16" d="m1821.3,3054.73c1.71,4.67,8.93,44.76,8.93,44.76,0,0-11.94,4.37-26.6,9.73-18.32,6.7-40.1-6.84-48.66-30.23-8.56-23.4-.64-47.79,17.68-54.49,12.36-4.52,26.6-9.73,26.6-9.73,0,0,19.27,32.35,22.05,39.96Z"/>
  </g>
  <path class="cls-16" d="m1793.83,3118.54c-7.44,0-15.03-2.26-22.19-6.71-10.62-6.6-19.07-17.34-23.79-30.24-4.72-12.9-5.19-26.56-1.33-38.45,4.07-12.56,12.43-21.71,23.53-25.77l32.51-11.89,3.22,5.4c2.01,3.37,19.72,33.2,22.66,41.24h0c1.79,4.9,7.54,36.47,9.27,46.02l1.13,6.28-32.59,11.92c-4.01,1.47-8.19,2.2-12.41,2.2Zm2.1-94.48l-20.68,7.56c-6.62,2.42-11.7,8.17-14.3,16.2-2.82,8.69-2.41,18.83,1.15,28.56,3.56,9.73,9.79,17.74,17.54,22.56,7.17,4.46,14.77,5.57,21.38,3.15l20.6-7.53c-3.16-17.25-6.56-34.6-7.45-37.24-1.62-4.39-11.01-20.94-18.24-33.26Z"/>
  <ellipse class="cls-12" cx="1814.74" cy="3057.13" rx="35.31" ry="45.1" transform="translate(-939.53 809.17) rotate(-20.09)"/>
  <g class="cls-7">
    <path class="cls-16" d="m1781.58,3069.26c8.54,23.38,30.33,36.93,48.65,30.24,18.34-6.7,26.25-31.11,17.67-54.51-1.14-3.16-2.56-6.15-4.18-8.93,1.16,17.79-6.78,33.68-21.01,38.86-15.82,5.78-34.24-3.51-44.46-21.28.33,5.12,1.44,10.39,3.33,15.62Z"/>
  </g>
  <path class="cls-2" d="m1781.58,3069.26c.58,1.59,1.23,3.14,1.95,4.63-3.06-19.66,5-37.97,20.47-43.62,17.07-6.23,37.18,5.09,46.71,25.64-.55-3.64-1.49-7.28-2.81-10.92-8.54-23.39-30.33-36.93-48.65-30.24-18.31,6.72-26.22,31.1-17.67,54.51Z"/>
  <path class="cls-16" d="m1820.61,3108.77c-18.87,0-37.97-14.51-46.16-36.91-9.98-27.29-.02-56.09,22.2-64.22,22.21-8.12,48.41,7.47,58.39,34.75,9.98,27.29.02,56.1-22.2,64.22-3.98,1.46-8.1,2.15-12.23,2.15Zm-11.52-88.14c-2.45,0-4.88.41-7.23,1.27-14.36,5.25-20.26,25.33-13.15,44.76,7.1,19.43,24.55,30.97,38.93,25.71,14.36-5.25,20.26-25.33,13.15-44.76-5.94-16.25-19.13-26.98-31.69-26.98Z"/>
  <path class="cls-16" d="m1923.53,3155.4c-4.19,0-8.12-2.63-9.56-6.81l-22.21-64.29c-6.27-18.15-3.05-38.1,8.63-53.36,7.72-10.09,9.71-23.23,5.32-35.16l-33.13-89.98c-1.93-5.24.75-11.06,6-12.99,5.23-1.93,11.05.75,12.99,6l33.13,89.98c6.8,18.47,3.72,38.82-8.24,54.44-7.54,9.85-9.62,22.73-5.57,34.46l22.21,64.29c1.82,5.28-.98,11.04-6.26,12.86-1.09.38-2.21.56-3.3.56Z"/>
  <path class="cls-2" d="m1392.82,3111.65s-18.94,24.91-8.57,52.98c11.99,32.46,40.85,39.35,40.85,39.35,0,0,99.01,26.03,273.6-54.78,0,0,26.68-65.14-39.6-80.64,0,0-153.01,90.6-266.28,43.09Z"/>
  <g class="cls-7">
    <path class="cls-16" d="m1384.03,3164s0,0,0,0c11.85,33,41.1,39.98,41.1,39.98,0,0,99,26.02,273.59-54.78,0,0,20.39-49.79-18.75-72.67.05.21.09.42.14.63,4.48,21.43-7.26,43.06-27.41,51.64-160.06,68.12-250.29,44.42-250.29,44.42,0,0-8.63-2.05-18.37-9.22Z"/>
  </g>
  <path class="cls-16" d="m1469.5,3220.7c-29.7,0-45.99-4.06-47.61-4.49-1.17-.28-35.33-8.83-49.5-47.2-5.07-13.72-5.16-28.88-.27-43.85,5.31-16.25,22.74-25.38,38.87-20.33,93.47,29.24,212.55-31.26,235.47-43.69,7.66-4.16,16.69-4.99,24.78-2.28,36.61,12.28,52.53,43.75,42.57,84.19-2.3,9.33-8.87,17.25-17.59,21.17-104.07,46.91-181.17,56.47-226.73,56.47Zm-67.61-91.96c-2.47,0-4.89,1.71-5.73,4.28-3.15,9.63-3.17,18.79-.05,27.23,9.36,25.34,31.12,31.22,32.04,31.46,1.05.27,94.88,22.85,257.69-50.54,1.69-.76,2.96-2.31,3.42-4.16,6.86-27.85-1.91-46.07-26.05-54.17-1.44-.48-3.16-.3-4.68.53-34.42,18.65-154.5,77.06-255.08,45.6h0c-.51-.16-1.03-.23-1.55-.23Z"/>
  <g class="cls-7">
    <path class="cls-16" d="m1945.52,3175.28c-.85-3.47-5.12-20.18-11.71-46.82,6.59,26.64,10.83,43.37,11.71,46.82Z"/>
  </g>
  <g class="cls-7">
    <path class="cls-16" d="m1945.68,3175.97l.03-.02s-.08-.22-.17-.64c.07.44.14.66.14.66Z"/>
  </g>
  <path class="cls-16" d="m2363.92,3197.1c-5.06,3.4-10.36,7.39-15.4,11.34-5.06,4-10.07,8.13-14.86,12.48-9.57,8.72-18.73,18.01-25.68,29.31,3.44-12.86,9.85-25.04,16.83-36.59,3.5-5.81,7.29-11.43,11.19-17,3.97-5.58,7.89-10.93,12.44-16.47l.05-.06c4.06-4.95,11.37-5.67,16.32-1.6,4.95,4.06,5.67,11.37,1.6,16.32-.72.88-1.6,1.66-2.49,2.26Z"/>
  <g class="cls-7">
    <path class="cls-16" d="m1299.98,3160.6c.09,1.6-.1,3-.53,4.3.27-1.38.44-2.82.53-4.3Z"/>
  </g>
  <path class="cls-4" d="m2309.72,3429.05c-5.76-6.78-8.76-17.09-6.82-32.5,9.36-74.33,133.42-241.97,202.27-200,2.19,8.8,3.47,19.19,3.63,31.4,1.3,92.06-113.64,209.64-199.08,201.1Z"/>
  <g class="cls-7">
    <path class="cls-16" d="m2465.88,3338.4c-41,54.19-104.09,95.86-156.16,90.66-5.76-6.78-8.76-17.09-6.82-32.5,4.27-33.91,32.41-87.25,68.33-131.23-12.74,27.65-34.76,97.41-4.89,112.66,29.87,15.26,69.43-22.52,99.54-39.59Z"/>
  </g>
  <g class="cls-1">
    <path class="cls-2" d="m2482.44,3313.7c8.65-20.19,13.51-40.68,13.24-60.02,0-.58-.02-1.15-.03-1.71-.51-23.34-23.03-40.13-45.46-33.65-46.46,13.42-100.52,74.97-132.67,132.08,36.58-80.58,130.9-188.45,187.65-153.84,2.19,8.8,3.47,19.19,3.63,31.4.38,27.64-9.71,57.61-26.36,85.75Z"/>
  </g>
  <path class="cls-16" d="m2318.66,3439.61c-3.36,0-6.68-.16-9.95-.49l-4.06-.41-2.64-3.11c-8.22-9.68-11.3-23.24-9.14-40.31,7.63-60.6,83.73-173.54,151.11-206.01,25.1-12.09,48.08-12.56,66.46-1.36l3.55,2.16,1,4.04c2.44,9.83,3.76,21.17,3.93,33.71.71,49.81-30.1,109.45-80.39,155.62-39.33,36.1-82.41,56.17-119.87,56.17Zm-3.38-20.3c32.63,1.26,73.22-17.41,109.56-50.77,45.48-41.75,74.46-96.87,73.85-140.44-.12-9.16-.92-17.49-2.38-24.82-11.82-5.42-26.45-4.02-43.55,4.22-61.19,29.49-132.93,135.59-139.82,190.31-1.15,9.13-.36,16.34,2.34,21.49Z"/>
  <path class="cls-16" d="m2480.36,3247.4c-31.75,0-69.26-9.7-74.93-11.21-5.4-1.45-8.6-6.99-7.16-12.39,1.44-5.4,6.99-8.59,12.38-7.16,27.09,7.23,76.45,15.5,93.55,6.88,4.99-2.51,11.07-.51,13.59,4.48,2.51,4.99.51,11.07-4.48,13.59-8.45,4.26-20.24,5.81-32.96,5.81Z"/>
  <path class="cls-16" d="m2450.91,3298.94c-46.19,0-84.58-20.94-86.75-22.15-4.88-2.71-6.64-8.87-3.93-13.75,2.71-4.88,8.86-6.63,13.75-3.93h0c.64.36,64.69,35.12,121.03,11,5.13-2.2,11.08.18,13.28,5.32,2.2,5.13-.18,11.08-5.32,13.28-17.47,7.48-35.28,10.24-52.06,10.24Z"/>
  <path class="cls-16" d="m2425.6,3346.46c-65.41,0-92.21-28.55-93.54-30.01-3.75-4.14-3.44-10.53.69-14.29,4.11-3.73,10.47-3.45,14.23.62.6.62,34.46,34.8,121.69,19.43,5.49-.98,10.74,2.7,11.72,8.21.97,5.5-2.7,10.75-8.21,11.72-17.32,3.05-32.81,4.32-46.58,4.32Z"/>
  <path class="cls-16" d="m2390.42,3402.49c-52.65,0-83.65-32.06-85.14-33.64-3.84-4.06-3.66-10.46.4-14.3,4.06-3.83,10.44-3.66,14.28.38,1.53,1.59,35.88,36.47,93.38,25.01,5.5-1.09,10.81,2.46,11.9,7.94,1.09,5.48-2.46,10.81-7.94,11.9-9.49,1.89-18.46,2.71-26.88,2.71Z"/>
  <g>
    <g>
      <path class="cls-2" d="m1133.33,2508.28h0c5.16-1.04,8.49-6.07,7.45-11.23l-54.48-269.09c-1.04-5.16-6.07-8.49-11.23-7.45h0c-54.13,10.96-89.12,63.72-78.16,117.85l18.58,91.76c10.96,54.13,63.72,89.12,117.85,78.16Z"/>
      <path class="cls-16" d="m1113.27,2513.24c-20.02,0-39.61-5.86-56.68-17.18-22.91-15.2-38.54-38.41-43.99-65.35l-18.58-91.76c-5.46-26.95-.09-54.41,15.11-77.32,15.2-22.91,38.41-38.54,65.35-43.99,3.27-.66,6.59-.01,9.37,1.83,2.78,1.84,4.67,4.65,5.33,7.92l54.48,269.08c.66,3.26.01,6.59-1.83,9.37-1.84,2.78-4.65,4.67-7.92,5.33h0c-6.87,1.39-13.78,2.08-20.64,2.08Zm-36.3-289.98c-.44,0-.88.04-1.32.13-25.41,5.15-47.29,19.88-61.62,41.48-14.33,21.6-19.39,47.5-14.24,72.9l18.58,91.76c10.62,52.45,61.95,86.47,114.38,75.87h0c1.73-.35,3.22-1.35,4.19-2.82.97-1.47,1.32-3.23.97-4.95l-54.48-269.08c-.35-1.73-1.35-3.21-2.82-4.19-1.09-.73-2.35-1.1-3.63-1.1Z"/>
    </g>
    <g class="cls-7">
      <path class="cls-16" d="m997.3,2390.94l8.7,43.04c10.96,54.11,63.72,89.11,117.86,78.17,5.16-1.04,8.49-6.09,7.45-11.25l-14.46-71.54c-.79,3.55-3.6,6.47-7.38,7.26l-6.38,1.27c-42.77,8.67-84.72-11.38-105.79-46.95Z"/>
    </g>
    <path class="cls-16" d="m1113.45,2526.63c-54.19,0-102.83-38.15-113.99-93.27l-18.58-91.76c-6.17-30.46-.1-61.49,17.07-87.39,17.18-25.9,43.41-43.56,73.87-49.72,6.77-1.38,13.68-.02,19.45,3.8,5.76,3.82,9.69,9.66,11.06,16.44l54.48,269.08c1.37,6.77.02,13.68-3.8,19.44s-9.66,9.69-16.43,11.06h0c-7.76,1.57-15.5,2.33-23.12,2.33Zm-41.77-288.47c-19.06,5.48-35.39,17.41-46.47,34.13-12.35,18.62-16.71,40.93-12.28,62.83l18.58,91.76c8.7,42.95,49.07,71.57,91.84,66.46l-51.67-255.18Zm58.4,254.1s0,0,0,0c0,0,0,0,0,0h0Z"/>
    <g>
      <path class="cls-2" d="m1963.25,2040.69h0c-5.16,1.04-8.49,6.07-7.45,11.23l54.48,269.09c1.04,5.16,6.07,8.49,11.23,7.45h0c54.13-10.96,89.12-63.72,78.16-117.85l-18.58-91.76c-10.96-54.13-63.72-89.12-117.85-78.16Z"/>
      <path class="cls-16" d="m2019.59,2331.58c-2.42,0-4.8-.71-6.87-2.08-2.78-1.84-4.67-4.65-5.33-7.92l-54.48-269.08c-.66-3.26-.01-6.59,1.83-9.37,1.84-2.78,4.65-4.67,7.92-5.33h0c55.64-11.27,110.05,24.83,121.31,80.46l18.58,91.76c5.46,26.95.09,54.41-15.1,77.32-15.2,22.91-38.41,38.54-65.35,43.99-.83.17-1.67.25-2.5.25Zm-55.76-288.02c-1.73.35-3.22,1.35-4.19,2.82-.97,1.47-1.32,3.23-.97,4.95l54.48,269.09c.35,1.73,1.35,3.21,2.82,4.19,1.47.97,3.23,1.3,4.95.97,25.41-5.14,47.29-19.88,61.62-41.48,14.33-21.61,19.39-47.5,14.24-72.91l-18.58-91.76c-10.62-52.45-61.93-86.49-114.38-75.87h0Z"/>
    </g>
    <g class="cls-7">
      <path class="cls-16" d="m1995.14,2246.36l15.12,74.65c1.04,5.16,6.09,8.49,11.25,7.45,28.41-5.76,51.57-23.03,65.57-45.99,12.64-20.73,17.78-46.13,12.58-71.83l-7.83-38.67c-8.5,37.03-37.94,67.6-77.63,75.64l-9.82,1.99c-3.59.72-7.03-.65-9.25-3.23Z"/>
    </g>
    <path class="cls-16" d="m2019.57,2345c-5.03,0-9.96-1.47-14.25-4.32-5.76-3.82-9.69-9.66-11.06-16.44l-54.48-269.08c-1.37-6.77-.02-13.68,3.8-19.44,3.82-5.76,9.66-9.69,16.43-11.06h0c62.87-12.73,124.39,28.07,137.12,90.94l18.58,91.76c6.17,30.46.1,61.49-17.07,87.39-17.18,25.9-43.41,43.56-73.87,49.72-1.73.35-3.47.52-5.19.52Zm-46.33-289.38l51.66,255.18c19.06-5.47,35.39-17.41,46.47-34.13,12.35-18.62,16.71-40.93,12.28-62.83l-18.58-91.76c-8.7-42.95-49.06-71.55-91.84-66.47Zm-6.74,1.08h0Z"/>
    <g>
      <circle class="cls-2" cx="1548.23" cy="2274.49" r="467.85" transform="translate(-1154.84 1760.95) rotate(-45)"/>
      <path class="cls-16" d="m1547.51,2745.49c-80.15,0-159.34-20.67-231.01-61.19-109.46-61.9-188.27-162.72-221.9-283.89-33.63-121.17-18.07-248.18,43.83-357.65,61.9-109.46,162.72-188.27,283.89-221.9,250.14-69.42,510.12,77.59,579.55,327.72,33.63,121.17,18.07,248.18-43.83,357.65-61.9,109.46-162.72,188.27-283.89,221.9-41.84,11.61-84.37,17.36-126.64,17.36Zm1.44-936.11c-41.74,0-83.75,5.68-125.06,17.14-119.66,33.21-219.22,111.04-280.35,219.13s-76.5,233.53-43.29,353.18h0c33.21,119.66,111.04,219.22,219.13,280.35,108.09,61.13,233.52,76.5,353.18,43.29,119.66-33.21,219.22-111.04,280.35-219.13,61.13-108.1,76.5-233.53,43.29-353.18-33.21-119.66-111.04-219.22-219.13-280.35-70.77-40.02-148.98-60.43-228.12-60.43Z"/>
    </g>
    <g class="cls-7">
      <path class="cls-16" d="m1084.43,2336.02c2.79,21.18,7.12,42.41,12.99,63.61,69.14,248.95,326.98,394.76,575.95,325.68,248.96-69.14,394.76-326.98,325.68-575.95-1.98-7.16-4.14-14.28-6.44-21.24,30.52,227.88-110.88,449.1-338.68,512.34-241.81,67.1-491.95-68.5-569.51-304.44Z"/>
    </g>
    <path class="cls-16" d="m1547.49,2758.91c-82.44,0-163.87-21.25-237.59-62.93-112.58-63.66-193.63-167.35-228.22-291.98-34.59-124.62-18.58-255.25,45.08-367.83s167.35-193.63,291.98-228.22c124.61-34.59,255.25-18.58,367.83,45.08,112.58,63.66,193.63,167.35,228.22,291.98,34.59,124.62,18.58,255.25-45.08,367.83-63.66,112.58-167.35,193.63-291.98,228.22-43.02,11.94-86.78,17.85-130.24,17.85Zm1.44-936.11c-40.53,0-81.33,5.51-121.45,16.65-116.21,32.26-212.9,107.83-272.26,212.81-59.36,104.98-74.29,226.79-42.04,342.99,32.26,116.21,107.83,212.9,212.81,272.26,104.98,59.36,226.79,74.28,342.99,42.04,116.21-32.26,212.9-107.83,272.26-212.81,59.36-104.98,74.29-226.79,42.04-342.99-32.26-116.21-107.83-212.9-212.81-272.26-68.73-38.86-144.68-58.68-221.54-58.68Z"/>
    <path class="cls-16" d="m1102.09,2410.8c23.15,88.58,73.4,163.29,140.35,218.48,50.2,41.37,225.08,91.04,412.65,43.81,173.92-43.79,307.62-177.57,331.15-238.21,31.39-80.89,38.65-170.64,15.5-259.21-61.26-234.4-288.04-278.93-536.49-214-248.44,64.93-424.43,214.74-363.17,449.13Z"/>
    <g class="cls-5">
      <ellipse class="cls-2" cx="1239.96" cy="2340.75" rx="59.99" ry="82.79" transform="translate(-870.78 740.31) rotate(-24.92)"/>
    </g>
    <g class="cls-5">
      <ellipse class="cls-2" cx="1352.54" cy="2480.84" rx="32.61" ry="38" transform="translate(-1129.67 1130.81) rotate(-32.86)"/>
    </g>
    <g class="cls-7">
      <path class="cls-3" d="m1132.42,2169.26c-41.28,66.85-54.93,147.38-30.33,241.52,23.15,88.59,73.42,163.3,140.34,218.5,50.21,41.37,225.1,91.02,412.68,43.82,66.24-16.66,126.61-46.38,177.31-80.18-231.81,53.12-445.06-8.2-507.31-59.52-84.99-70.04-148.75-164.89-178.11-277.29-7.87-30.03-12.61-58.99-14.57-86.86Z"/>
    </g>
    <path class="cls-16" d="m1087.04,2208.62c-2.71,0-5.45-.81-7.82-2.51-5.34-3.81-7.09-10.77-4.49-16.53,51.48-134.29,188.96-239.52,377.33-288.76,189.85-49.62,361.98-22.83,472.27,73.5,5.29,4.5,6.37,12.41,2.26,18.17-4.34,6.08-12.75,7.5-18.83,3.17l-1.11-.87c-103.44-90.43-266.64-115.14-447.76-67.8-180.13,47.08-311.04,146.55-359.16,272.9l-.62,1.63-1.01,1.42c-2.64,3.7-6.82,5.69-11.06,5.69Z"/>
    <g class="cls-5">
      <path class="cls-2" d="m1937.16,2341.51s12.16-250.21-136.54-309.78c-148.7-59.57-327.9-12.34-320.7-1.94,0,0,211.05-3.83,329.72,132.79,91.51,105.35,127.52,178.93,127.52,178.93Z"/>
    </g>
  </g>
  <path class="cls-2" d="m2104.43,2355.74s-66.08-92.24-176.54-86.82c-78.14,3.83-113.75,150.61-29.24,229.47,39.73,37.08,75.55,48.18,86.14,127.78"/>
  <path class="cls-16" d="m1984.77,2641.47c-7.55,0-14.12-5.59-15.14-13.28-7.63-57.39-28.36-74.31-57.05-97.74-7.82-6.38-15.9-12.98-24.36-20.88-57.27-53.45-63.1-131.5-43.46-185.14,15.58-42.56,46.38-69.02,82.39-70.79,117.41-5.77,186.82,89.14,189.72,93.19,4.92,6.87,3.34,16.42-3.53,21.34-6.85,4.91-16.39,3.34-21.32-3.5h0c-.62-.85-62.92-85.43-163.37-80.47-23.33,1.15-43.95,20.12-55.17,50.75-15.64,42.73-11.17,108.61,35.61,152.27,7.72,7.2,15.41,13.48,22.84,19.55,30.24,24.69,58.8,48.01,68.02,117.4,1.11,8.37-4.77,16.06-13.14,17.18-.68.09-1.36.13-2.03.13Z"/>
  <g class="cls-7">
    <path class="cls-16" d="m1443.37,2797.91l14.05,150.58c333.45,240.15,463.11-102.46,497.76-168.34,7.14-13.58,30.52-53.93,44.97-63.41,15.64-10.28,31.01-45.68,32.73-71.41,0,0-9.73-93.04-41.38-121.02-32.46-28.67-106.12-17.81-142.9,3.48-50.84,29.44-86.7,98.9-147.37,159.83-74.51,74.77-234.74,47.25-257.87,110.29Z"/>
  </g>
  <path class="cls-2" d="m1424.62,2766.36l31.5,174.82,1.3,7.3c314.31,111.09,449.56-152.53,505.45-224.44,9.4-12.12,36.97-28.02,51.42-37.5,15.64-10.28,23.55-31.88,25.27-57.61v-.04c3.36-49.73-16.4-114.84-48.05-142.82-32.46-28.67-106.12-17.81-142.9,3.48-50.84,29.44-86.7,98.9-147.37,159.83-74.51,74.77-253.49,53.94-276.62,116.98Z"/>
  <g class="cls-7">
    <path class="cls-16" d="m1456.12,2941.18l1.3,7.3c314.31,111.09,449.56-152.53,505.45-224.44,9.4-12.12,36.97-28.02,51.42-37.5,15.64-10.28,23.55-31.88,25.27-57.61-8.75,12.12-20.15,22.59-33.91,23.93-34.75,3.36-83.3,2.03-97.14,20.22-13.84,18.23-39.22,109.56-129.21,186.67-90.83,77.79-246.84,103.1-323.18,81.43Z"/>
  </g>
  <path class="cls-16" d="m1418.67,2764.19c2.42-9.33,8.29-17.64,15.17-23.79,6.87-6.28,14.62-10.92,22.43-14.91,15.73-7.69,31.95-12.66,48.01-16.9,32.18-8.34,64.23-13.85,94.98-22.42,30.55-8.49,60.62-19.51,83.56-38.22,2.99-2.2,5.45-4.87,8.17-7.29,2.7-2.65,5.48-5.68,8.22-8.51,5.5-5.74,10.79-11.72,16.05-17.75,10.52-12.04,20.55-24.67,30.6-37.42,20.17-25.45,39.6-52.27,64.88-76.13,12.6-11.78,27.26-22.87,44.16-30.04,16.44-7.27,33.4-11.54,50.73-14.14,17.32-2.51,35.12-3.07,53.3.17,9.06,1.5,18.26,4.32,27.14,8.76l6.59,3.63,6.23,4.64c4.07,3.16,7.25,6.52,10.4,10.05,12.3,14.15,20.73,29.94,27.23,46.13,6.53,16.21,11.04,32.95,13.97,50.01,2.8,17.08,4.08,34.5,2.57,52.29-.76,8.88-2.2,17.86-4.9,26.86-2.71,8.95-6.69,18.06-13.16,26.32-1.61,2.06-3.31,4.07-5.32,5.91-1.85,1.94-4.03,3.62-6.27,5.24l-1.66,1.22-1.34.87-2.66,1.71-5.25,3.31c-6.91,4.34-13.7,8.59-20.14,13-6.35,4.35-12.77,9.05-17.07,13.46-1.63,1.56-4.17,5.19-6.52,8.22l-7.02,9.71c-18.58,26.5-37.51,53.9-58.56,79.64-10.47,12.94-21.59,25.4-33.07,37.56-11.7,11.96-23.72,23.68-36.61,34.49-25.48,21.93-54.06,40.56-84.66,55.07-30.58,14.62-63.71,23.75-97.18,28.15-33.56,4.12-67.48,3.05-100.47-2.08-33-5.32-65.09-14.55-95.89-26.55-3.25-1.27-4.86-4.94-3.6-8.19,1.2-3.09,4.57-4.7,7.69-3.77l.12.04c30.96,9.31,62.38,16.63,94.14,20.05,31.7,3.66,63.71,3.36,94.86-1.71,31.16-4.83,61.49-14.26,89.75-28.1,6.97-3.65,14.12-6.95,20.82-11.13l10.19-5.99,9.87-6.53c6.7-4.17,12.88-9.14,19.33-13.7,6.17-4.95,12.48-9.74,18.43-14.99,12.09-10.26,23.43-21.44,34.51-32.89,10.87-11.66,21.45-23.64,31.47-36.17,20.18-24.99,38.29-51.49,57.05-78.59l7.28-10.19c2.65-3.41,4.64-6.64,8.71-10.94,7.14-7.28,14.1-12.14,21.14-17.1,7.02-4.86,14.06-9.31,20.95-13.7l5.1-3.26,2.49-1.61,1.22-.8.78-.63c1.06-.8,2.15-1.57,3.09-2.63,1.04-.9,1.94-2.03,2.84-3.2,7.33-9.36,10.97-24.02,12.08-38.66,1.19-14.8.04-30.21-2.54-45.33-2.68-15.11-6.82-30.07-12.59-44.14-5.68-14.06-13.16-27.36-22.41-37.83-2.28-2.54-4.79-5.13-7.19-6.93-1.21-.88-2.39-1.79-3.56-2.72l-4.16-2.25c-5.7-2.86-12.25-5.03-19.31-6.18-14.01-2.58-29.3-2.3-44.27-.13-14.95,2.18-29.97,5.97-43.43,11.92-13.29,5.55-25.2,14.38-36.45,24.82-22.45,20.97-41.78,47.21-62.36,72.72-10.27,12.82-20.68,25.7-31.76,38.17-5.53,6.23-11.13,12.45-16.97,18.46-2.97,3.02-5.73,5.99-8.88,9.04-3.37,3.01-6.56,6.29-10.16,8.94-14.04,11.21-29.56,19.71-45.38,26.37-15.85,6.66-32.01,11.74-48.16,16.07-32.32,8.62-64.74,14.33-96.15,21-15.7,3.31-31.15,6.9-45.49,12.05-14.08,5.35-27.46,12.19-33.85,24.44l-.09.17c-1.62,3.11-5.46,4.32-8.57,2.69-2.67-1.39-3.94-4.43-3.21-7.23Z"/>
  <path class="cls-16" d="m1785.77,2932.66c-2.58,0-5.19-.79-7.44-2.43-127.41-92.87-87.23-279.76-85.46-287.67,1.53-6.81,8.27-11.1,15.09-9.57,6.81,1.52,11.1,8.28,9.59,15.09-.4,1.78-38.23,178.69,75.68,261.72,5.64,4.11,6.88,12.02,2.77,17.67-2.48,3.4-6.32,5.2-10.23,5.2Z"/>
  <path class="cls-16" d="m1993.44,2288.75c-6.98,0-12.64-5.66-12.64-12.64v-938.48c0-6.98,5.66-12.64,12.64-12.64s12.64,5.66,12.64,12.64v938.48c0,6.98-5.66,12.64-12.64,12.64Z"/>
  <path class="cls-16" d="m2281.25,2932.66c-.93,0-1.86-.1-2.8-.31-36.88-8.34-55.41-32.91-73.32-56.67-23.91-31.7-46.51-61.67-115.17-59.95-37.99.88-66.72-9.67-85.21-31.51-30.05-35.5-20.55-86.91-20.13-89.08,1.33-6.86,7.98-11.33,14.81-10.02,6.85,1.32,11.33,7.94,10.02,14.79-.15.82-7.44,42.06,14.69,68.08,13.3,15.64,35.24,23.22,65.2,22.46,81.63-1.92,110.52,36.25,135.98,70.01,16.56,21.97,30.87,40.93,58.71,47.24,6.81,1.54,11.08,8.31,9.54,15.12-1.33,5.87-6.54,9.86-12.32,9.86Z"/>
  <g>
    <g>
      <ellipse class="cls-6" cx="2000.69" cy="1528.38" rx="161.87" ry="66.3"/>
      <path class="cls-16" d="m2000.69,1596.65c-90.33,0-163.83-30.62-163.83-68.26s73.49-68.26,163.83-68.26,163.83,30.62,163.83,68.26-73.49,68.26-163.83,68.26Zm0-132.61c-88.18,0-159.91,28.86-159.91,64.35s71.74,64.35,159.91,64.35,159.91-28.86,159.91-64.35-71.74-64.35-159.91-64.35Z"/>
    </g>
    <g>
      <ellipse class="cls-2" cx="2000.69" cy="1528.38" rx="161.87" ry="66.3"/>
      <path class="cls-16" d="m2000.69,1596.65c-90.33,0-163.83-30.62-163.83-68.26s73.49-68.26,163.83-68.26,163.83,30.62,163.83,68.26-73.49,68.26-163.83,68.26Zm0-132.61c-88.18,0-159.91,28.86-159.91,64.35s71.74,64.35,159.91,64.35,159.91-28.86,159.91-64.35-71.74-64.35-159.91-64.35Z"/>
    </g>
    <g class="cls-10">
      <ellipse class="cls-16" cx="2000.69" cy="1528.38" rx="161.87" ry="66.3"/>
    </g>
    <path class="cls-16" d="m2000.69,1606.81c-99.19,0-173.99-33.72-173.99-78.42s74.8-78.42,173.99-78.42,173.99,33.72,173.99,78.42-74.8,78.42-173.99,78.42Zm0-132.61c-85.71,0-149.75,28.61-149.75,54.18s64.04,54.18,149.75,54.18,149.75-28.61,149.75-54.18-64.04-54.18-149.75-54.18Z"/>
    <g>
      <ellipse class="cls-2" cx="2409.48" cy="1485.78" rx="161.87" ry="66.3" transform="translate(-201.56 392.34) rotate(-8.94)"/>
      <path class="cls-16" d="m2361.7,1557.93c-21.31,0-41.18-2.06-58.46-6.15-32.97-7.82-52.72-22.22-55.6-40.55-2.88-18.33,11.49-38.1,40.47-55.66,28.47-17.25,67.81-30.47,110.76-37.22,42.96-6.76,84.46-6.25,116.84,1.43,32.97,7.82,52.72,22.22,55.6,40.55,2.88,18.33-11.49,38.1-40.47,55.66-28.47,17.25-67.81,30.47-110.76,37.22-20.04,3.15-39.76,4.72-58.38,4.72Zm95.56-140.4c-18.42,0-37.93,1.56-57.78,4.68-42.47,6.68-81.3,19.71-109.35,36.7-27.53,16.68-41.25,35.04-38.63,51.7,2.62,16.66,21.31,29.92,52.64,37.35,31.9,7.57,72.87,8.05,115.33,1.37,42.47-6.68,81.3-19.71,109.34-36.7,27.53-16.68,41.25-35.04,38.63-51.7-2.62-16.66-21.31-29.92-52.64-37.35-16.99-4.03-36.56-6.05-57.55-6.05Z"/>
    </g>
    <path class="cls-16" d="m2361.73,1568.08c-22.12,0-42.81-2.15-60.84-6.42-37.25-8.83-59.73-26.18-63.29-48.86-3.57-22.68,12.5-46.09,45.24-65.93,29.57-17.92,70.22-31.62,114.45-38.57,44.23-6.96,87.12-6.39,120.76,1.58,37.25,8.83,59.73,26.18,63.29,48.86,3.57,22.68-12.5,46.09-45.24,65.93-29.57,17.92-70.22,31.62-114.45,38.57-20.53,3.23-40.77,4.84-59.93,4.84Zm95.56-140.4c-17.88,0-36.88,1.52-56.23,4.56-41.19,6.48-78.72,19.04-105.66,35.36-23.08,13.98-35.74,29.48-33.86,41.43,1.88,11.96,18.68,22.81,44.94,29.04,30.65,7.27,70.22,7.7,111.41,1.22,41.19-6.48,78.71-19.04,105.65-35.36,23.08-13.98,35.74-29.48,33.86-41.43-1.88-11.96-18.68-22.81-44.94-29.04-16.25-3.85-35-5.78-55.18-5.78Z"/>
    <g>
      <ellipse class="cls-2" cx="1591.9" cy="1485.78" rx="66.3" ry="161.87" transform="translate(-123.13 2827.54) rotate(-81.06)"/>
      <path class="cls-16" d="m1639.68,1557.93c-18.63,0-38.34-1.57-58.38-4.72-42.96-6.76-82.29-19.98-110.76-37.22-28.98-17.56-43.35-37.33-40.47-55.66,2.88-18.33,22.63-32.73,55.6-40.55,32.39-7.68,73.88-8.19,116.85-1.43,42.96,6.76,82.29,19.98,110.76,37.22,28.98,17.56,43.35,37.33,40.47,55.66-2.88,18.33-22.63,32.73-55.6,40.55-17.28,4.1-37.16,6.15-58.46,6.15Zm-95.56-140.4c-20.99,0-40.55,2.02-57.55,6.05-31.32,7.43-50.02,20.69-52.64,37.35-2.62,16.66,11.1,35.02,38.63,51.7,28.04,16.99,66.88,30.03,109.35,36.7,42.47,6.68,83.42,6.19,115.33-1.37,31.32-7.43,50.02-20.69,52.64-37.35,2.62-16.66-11.1-35.02-38.63-51.7-28.04-16.99-66.88-30.03-109.35-36.7-19.85-3.12-39.37-4.68-57.78-4.68Z"/>
    </g>
    <g class="cls-10">
      <ellipse class="cls-16" cx="2409.48" cy="1485.78" rx="161.87" ry="66.3" transform="translate(-201.56 392.34) rotate(-8.94)"/>
    </g>
    <g class="cls-10">
      <ellipse class="cls-16" cx="1591.9" cy="1485.78" rx="66.3" ry="161.87" transform="translate(-123.13 2827.54) rotate(-81.06)"/>
    </g>
    <path class="cls-16" d="m1639.65,1568.08c-19.16,0-39.4-1.61-59.93-4.84-44.23-6.95-84.88-20.65-114.45-38.57-32.74-19.84-48.81-43.25-45.24-65.93,3.56-22.68,26.04-40.03,63.29-48.86,33.64-7.97,76.53-8.54,120.77-1.58,44.23,6.95,84.88,20.65,114.45,38.57,32.74,19.84,48.81,43.25,45.24,65.93-3.56,22.68-26.04,40.03-63.29,48.86-18.03,4.27-38.72,6.42-60.84,6.42Zm-95.56-140.4c-20.17,0-38.93,1.93-55.18,5.78-26.26,6.23-43.06,17.08-44.94,29.04-1.88,11.96,10.78,27.45,33.86,41.43,26.94,16.32,64.47,28.88,105.66,35.36,41.19,6.47,80.76,6.04,111.41-1.22,26.26-6.23,43.06-17.08,44.94-29.04,1.88-11.96-10.78-27.45-33.86-41.43-26.94-16.32-64.47-28.88-105.66-35.36-19.36-3.04-38.35-4.56-56.24-4.56Z"/>
    <g>
      <ellipse class="cls-14" cx="2000.69" cy="1345.52" rx="725.25" ry="182.86"/>
      <path class="cls-16" d="m2000.69,1530.34c-193.88,0-376.17-19.04-513.3-53.62-137.93-34.78-213.9-81.37-213.9-131.2s75.96-96.42,213.9-131.2c137.13-34.58,319.43-53.62,513.3-53.62s376.17,19.04,513.31,53.62c137.93,34.78,213.9,81.37,213.9,131.2s-75.96,96.42-213.9,131.2c-137.13,34.58-319.43,53.62-513.31,53.62Zm0-365.73c-398.82,0-723.29,81.15-723.29,180.9s324.47,180.91,723.29,180.91,723.29-81.15,723.29-180.91-324.47-180.9-723.29-180.9Z"/>
    </g>
    <g>
      <path class="cls-2" d="m2724.09,1358.61c-4.09,14.6-15,28.75-31.9,42.2-92.95,73.95-367.4,127.58-691.5,127.58s-598.55-53.62-691.5-127.58c-16.91-13.45-27.81-27.6-31.9-42.2,26.69-58.5,340.37-104.67,723.4-104.67s696.71,46.17,723.4,104.67Z"/>
      <path class="cls-16" d="m2000.69,1530.92c-318.23,0-596.75-51.49-693.07-128.12-17.57-13.98-28.59-28.62-32.76-43.5l-.25-.89.39-.84c27.61-60.52,339.59-106.15,725.7-106.15s698.09,45.63,725.7,106.15l.39.84-.25.89c-4.17,14.88-15.19,29.52-32.76,43.5-96.32,76.64-374.85,128.12-693.08,128.12Zm-720.7-172.08c4.07,13.53,14.42,26.98,30.78,40,95.5,75.98,372.75,127.03,689.92,127.03s594.43-51.05,689.93-127.03c16.35-13.02,26.71-26.47,30.78-40-29.02-57.47-344.55-102.37-720.71-102.37s-691.68,44.89-720.7,102.37Z"/>
    </g>
    <g class="cls-10">
      <path class="cls-16" d="m2724.09,1358.61c-4.09,14.6-15,28.75-31.9,42.2-92.95,45.63-367.4,78.68-691.5,78.68s-598.55-33.05-691.5-78.68c-16.91-13.45-27.81-27.6-31.9-42.2,26.69-58.5,340.37-104.67,723.4-104.67s696.71,46.17,723.4,104.67Z"/>
    </g>
    <path class="cls-16" d="m2000.69,1540.5c-194.69,0-377.87-19.15-515.79-53.93-101.08-25.49-221.57-70.65-221.57-141.05s120.49-115.57,221.57-141.05c137.92-34.78,321.1-53.93,515.79-53.93s377.87,19.15,515.79,53.93c101.08,25.49,221.58,70.64,221.58,141.05s-120.5,115.57-221.58,141.05c-137.92,34.78-321.1,53.93-515.79,53.93Zm0-365.73c-426.57,0-713.12,88.28-713.12,170.74s286.55,170.74,713.12,170.74,713.13-88.29,713.13-170.74-286.55-170.74-713.13-170.74Z"/>
    <g>
      <path class="cls-11" d="m3194.15,1129.48v69.68c0,129.68-534.33,234.8-1193.46,234.8s-1193.46-105.12-1193.46-234.8v-69.68"/>
      <path class="cls-16" d="m2000.69,1435.92c-318.91,0-618.75-24.44-844.28-68.81-226.44-44.55-351.14-104.2-351.14-167.95v-69.68h3.92v69.68c0,128.39,534.5,232.84,1191.5,232.84s1191.5-104.45,1191.5-232.84v-69.68h3.92v69.68c0,63.75-124.7,123.4-351.14,167.95-225.53,44.37-525.37,68.81-844.28,68.81Z"/>
    </g>
    <g class="cls-10">
      <path class="cls-16" d="m3194.16,1166.84v32.33c0,129.67-534.33,234.79-1193.47,234.79s-1193.47-105.13-1193.47-234.79v-32.33c0,129.67,534.33,234.79,1193.47,234.79s1193.47-105.13,1193.47-234.79Z"/>
    </g>
    <path class="cls-16" d="m2000.69,1446.08c-319.55,0-620.08-24.5-846.24-69-163.93-32.25-359.34-89.3-359.34-177.92v-69.68c0-6.69,5.43-12.12,12.12-12.12s12.12,5.43,12.12,12.12v69.68c0,107.54,474.69,222.68,1181.34,222.68s1181.34-115.14,1181.34-222.68v-69.68c0-6.69,5.43-12.12,12.12-12.12s12.12,5.43,12.12,12.12v69.68c0,88.62-195.41,145.67-359.34,177.92-226.16,44.5-526.7,69-846.24,69Z"/>
    <ellipse class="cls-8" cx="1999.3" cy="1129.48" rx="1193.46" ry="234.8"/>
    <g class="cls-5">
      <path class="cls-2" d="m2016.35,1312.66c-42.18,0-75.22-24.07-75.22-54.81s33.04-54.81,75.22-54.81,75.22,24.07,75.22,54.81-33.04,54.81-75.22,54.81Zm0-85.38c-27.64,0-50.99,14-50.99,30.57s23.35,30.57,50.99,30.57,50.99-14,50.99-30.57-23.35-30.57-50.99-30.57Z"/>
    </g>
    <g class="cls-5">
      <path class="cls-2" d="m2484.48,1297.75c-17.45,0-34.03-4.31-47.14-12.32-15.59-9.53-24.92-23.78-25.63-39.09-.7-15.31,7.29-30.35,21.94-41.27,13.46-10.03,31.45-16.04,50.69-16.92,42.08-1.94,76.24,20.6,77.66,51.3h0c1.4,30.7-30.5,56.26-72.63,58.2-1.64.08-3.27.11-4.89.11Zm4.72-85.48c-1.24,0-2.48.03-3.74.09-14.24.65-27.83,5.08-37.31,12.15-4.76,3.54-12.66,10.95-12.21,20.73.45,9.78,9,16.43,14.06,19.52,10.08,6.17,24.02,9.32,38.27,8.68,27.6-1.27,50.29-16.32,49.53-32.87-.73-15.8-22.6-28.29-48.59-28.29Z"/>
    </g>
    <g class="cls-5">
      <path class="cls-2" d="m2883.67,1229.93c-39.77,0-71.24-21.92-72.61-51.38-.71-15.31,7.28-30.36,21.92-41.28,13.45-10.04,31.45-16.06,50.68-16.95,19.22-.88,37.71,3.43,52.03,12.18,15.59,9.52,24.94,23.77,25.65,39.08h0c.71,15.31-7.28,30.36-21.92,41.28-13.45,10.04-31.45,16.06-50.68,16.95-1.7.08-3.4.12-5.08.12Zm4.84-85.49c-1.24,0-2.48.03-3.73.09-14.24.66-27.83,5.09-37.31,12.16-4.75,3.55-12.66,10.96-12.2,20.74.76,16.55,24.83,29.48,52.35,28.17,14.24-.66,27.83-5.09,37.31-12.16,4.75-3.55,12.66-10.96,12.2-20.74h0c-.45-9.78-9.01-16.42-14.07-19.52-9.21-5.62-21.63-8.74-34.55-8.74Z"/>
    </g>
    <g class="cls-5">
      <path class="cls-2" d="m1559.94,1297.75c-1.66,0-3.33-.04-5.02-.12-42.14-1.93-74.04-27.5-72.63-58.19h0c1.41-30.7,35.56-53.25,77.65-51.3,19.23.88,37.23,6.89,50.69,16.92,14.65,10.92,22.65,25.96,21.94,41.27-1.35,29.47-32.84,51.42-72.63,51.42Zm-53.44-57.2c-.76,16.55,21.92,31.61,49.53,32.87,27.64,1.25,51.57-11.65,52.33-28.2.45-9.78-7.46-17.18-12.21-20.73-9.48-7.07-23.08-11.49-37.31-12.15-27.61-1.25-51.57,11.65-52.33,28.2h0Z"/>
    </g>
    <g class="cls-5">
      <path class="cls-2" d="m1160.62,1229.93c-1.68,0-3.37-.04-5.08-.12-19.23-.89-37.23-6.91-50.68-16.95-14.64-10.93-22.63-25.97-21.92-41.28.71-15.31,10.06-29.55,25.65-39.08,14.32-8.75,32.81-13.08,52.03-12.18,19.23.89,37.23,6.91,50.68,16.95,14.64,10.93,22.63,25.97,21.92,41.28-1.37,29.45-32.84,51.38-72.61,51.38Zm-4.84-85.49c-12.92,0-25.34,3.12-34.55,8.74-5.06,3.09-13.62,9.74-14.07,19.52h0c-.46,9.78,7.45,17.19,12.2,20.74,9.48,7.07,23.07,11.5,37.31,12.16,27.57,1.27,51.58-11.62,52.35-28.17.45-9.78-7.45-17.19-12.2-20.74-9.48-7.07-23.07-11.5-37.31-12.16-1.24-.06-2.49-.09-3.73-.09Zm-60.73,27.7h.04-.04Z"/>
    </g>
    <g class="cls-5">
      <path class="cls-2" d="m2699.77,1024.57c0,60.61-310.4,146.58-693.29,146.58s-693.29-85.97-693.29-146.58,310.4-109.75,693.29-109.75,693.29,49.14,693.29,109.75Z"/>
    </g>
    <g class="cls-10">
      <path class="cls-16" d="m2493.08,1059.34s186.17,93.75,220.45,141.91c34.27,48.16,99.16,100.3,99.16,100.3,0,0,600.39-117.89,292.64-254.98,0,0,77.78,50.1,56.5,87.07-30.8,53.49-164.16,101.51-252.15,120.39-46.98,10.08-96.04-3.15-131.23-35.86-46.67-43.38-127.33-106.86-243.45-158.83-39.93-17.87-41.91,0-41.91,0Z"/>
    </g>
    <g class="cls-10">
      <path class="cls-16" d="m1519.87,1059.34s-186.17,93.75-220.44,141.91c-34.27,48.16-99.16,100.3-99.16,100.3,0,0-600.39-117.89-292.64-254.98,0,0-79.62,51.22-56.5,87.07,38.87,60.25,158.68,99.9,246.53,119.18,50.23,11.02,102.56-3.22,140.46-37.98,47.17-43.25,126.66-104.84,239.84-155.49,39.93-17.87,41.91,0,41.91,0Z"/>
    </g>
    <g class="cls-10">
      <path class="cls-16" d="m1513.12,1065.54s-269.37,142.2-310.44,238.53c0,0,327.84,60.21,798.01,60.21s802.41-67.65,802.41-67.65c0,0-197.25-224.81-328.54-234.54-131.29-9.73-37.98,9.49-37.98,9.49,0,0,184.13,81.37,279.74,173.22,14.59,14.02,6.78,38.65-13.27,41.44-105.93,14.75-388.09,49.32-706.44,49.32s-585.13-32.48-690.42-46.99c-20.11-2.77-28.05-27.62-13.24-41.5,16.54-15.5,39.25-35.1,68.26-56.47,48.41-35.65,177.84-110.69,177.84-110.69l-25.93-14.38Z"/>
    </g>
    <g>
      <path class="cls-9" d="m2643.76,1000.82c0,69.87-287.91,126.52-643.08,126.52s-643.08-56.64-643.08-126.52,643.08-72.99,643.08-72.99c0,0,643.08,3.12,643.08,72.99Z"/>
      <path class="cls-16" d="m2000.69,1129.87c-362.02,0-645.61-56.68-645.61-129.05s579.51-75.2,645.59-75.52c66.1.32,645.62,5.16,645.62,75.52s-283.58,129.05-645.61,129.05Zm-.01-199.51c-178.14.86-640.53,15.21-640.53,70.46,0,31.98,67.91,63.69,186.31,86.98,121.31,23.87,282.62,37.01,454.24,37.01s332.93-13.14,454.24-37.01c118.4-23.29,186.31-55,186.31-86.98,0-55.26-462.39-69.6-640.56-70.46Z"/>
    </g>
    <g>
      <path class="cls-9" d="m1928.62,1128.22c4.6.17,9.22.32,13.86.45h.34c18.91.53,38.22.81,57.86.81,33.74,0,66.53-.81,97.9-2.31h.02c180.39-8.65,314.27-40.63,314.27-78.78,0-32.34-214.92-42.37-334.38-45.44-1.57-.04-3.14-.06-4.66-.11-9.86-.25-18.99-.45-27.24-.59-28.15-.55-45.91-.64-45.91-.64,0,0-13.61.06-35.86.45-1.4.02-2.86.04-4.35.06-12.51.23-27.43.55-43.98,1-120.56,3.26-328.02,13.5-328.02,45.27,0,37.22,127.45,68.59,301.15,78.13.68.02,1.34.06,2.01.11l36.99,1.61Z"/>
      <path class="cls-16" d="m2000.69,1132c-19.34,0-38.83-.27-57.93-.81-4.99-.13-9.61-.28-14.22-.44h-.02l-36.99-1.61c-.87-.05-1.41-.09-1.98-.1-151.15-8.3-303.6-36.46-303.6-80.65,0-25.78,111.19-41.86,330.48-47.8,16.56-.45,31.49-.77,44-1l4.35-.06c22.27-.38,35.89-.44,35.89-.44.2,0,18.13.09,45.97.63,8.25.15,17.39.34,27.25.6l4.67.11c153.66,3.95,336.84,15.48,336.84,47.97,0,45.68-159.05,73.75-316.67,81.31-32.03,1.53-65.01,2.31-98.05,2.31Zm-71.96-6.31c4.59.17,9.19.32,13.82.44,52.54,1.44,105.3.92,155.91-1.5,180.73-8.66,311.88-40.73,311.88-76.26,0-21.53-124.08-37.57-331.92-42.92l-4.67-.11c-9.84-.25-18.97-.44-27.21-.59-27.81-.55-45.7-.63-45.88-.63.01,0-13.58.06-35.81.44l-4.35.06c-12.49.23-27.4.55-43.95.99-203.86,5.52-325.56,21.5-325.56,42.75,0,34.3,125.64,66.1,298.75,75.6.55.01,1.15.05,1.77.09l37.2,1.62Z"/>
    </g>
    <g>
      <path class="cls-18" d="m2643.77,1000.81c0,8.11-3.89,16.06-11.28,23.76-85.81-55.13-631.79-57.75-631.79-57.75,0,0-545.99,2.63-631.8,57.75-7.4-7.7-11.28-15.65-11.28-23.76,0-69.85,643.08-72.99,643.08-72.99,0,0,643.08,3.14,643.08,72.99Z"/>
      <path class="cls-16" d="m1368.51,1027.83l-1.44-1.5c-7.96-8.29-11.99-16.87-11.99-25.51,0-70.34,579.52-75.2,645.6-75.52,66.1.32,645.62,5.18,645.62,75.52,0,8.65-4.04,17.23-11.99,25.51l-1.44,1.5-1.75-1.12c-84.21-54.1-624.99-57.32-630.44-57.35-5.43.03-546.2,3.25-630.42,57.35l-1.75,1.12Zm632.17-63.53c22.19.11,540.58,3.22,631.36,57.04,6.11-6.83,9.2-13.72,9.2-20.52,0-55.24-462.4-69.59-640.56-70.46-178.14.87-640.54,15.22-640.54,70.46,0,6.8,3.09,13.69,9.2,20.52,90.79-53.82,609.17-56.93,631.34-57.04Z"/>
    </g>
    <path class="cls-16" d="m2000.69,1376.4c-319.55,0-620.08-24.5-846.24-69-163.93-32.25-359.34-89.3-359.34-177.92s195.41-145.67,359.34-177.92c226.16-44.5,526.7-69,846.24-69s620.08,24.5,846.24,69c163.93,32.25,359.34,89.3,359.34,177.92s-195.41,145.67-359.34,177.92c-226.16,44.5-526.7,69-846.24,69Zm0-469.6c-706.65,0-1181.34,115.14-1181.34,222.68s474.69,222.68,1181.34,222.68,1181.34-115.14,1181.34-222.68-474.69-222.68-1181.34-222.68Z"/>
    <path class="cls-15" d="m2635.18,1012.12c0,68.94-284.07,124.83-634.49,124.83s-634.49-55.89-634.49-124.83c0-241.59,124.5-737.12,634.49-737.12s634.49,495.54,634.49,737.12Z"/>
    <g class="cls-5">
      <path class="cls-2" d="m1389.69,1035.61c0-241.59,124.5-737.12,634.49-737.12,179.35,0,310.98,61.33,406.33,151.3-96.84-102.63-235.25-174.79-429.81-174.79-509.99,0-634.49,495.54-634.49,737.12,0,12.45,9.32,24.48,26.57,35.83-2.02-4.06-3.09-8.18-3.09-12.34Z"/>
    </g>
    <path class="cls-16" d="m2000.69,1153.3c-261.62,0-650.84-37.6-650.84-141.18,0-60.8,9.26-274.2,128.43-467.73,115.1-186.94,295.75-285.74,522.41-285.74,514.81,0,650.84,492.86,650.84,753.47,0,103.58-389.22,141.18-650.84,141.18Zm0-861.95c-488.95,0-618.14,471.47-618.14,720.77,0,14.21,36.36,45.41,172.64,72.22,118.83,23.38,277.04,36.25,445.49,36.25s326.67-12.88,445.5-36.25c136.28-26.81,172.64-58.02,172.64-72.22,0-120.81-32.46-302.62-123.57-450.58-110.39-179.28-276.79-270.19-494.57-270.19Z"/>
    <g>
      <ellipse class="cls-13" cx="2000.69" cy="1253.94" rx="63.1" ry="42.69"/>
      <path class="cls-16" d="m2000.69,1299.16c-36.19,0-65.63-20.29-65.63-45.22s29.44-45.21,65.63-45.21,65.63,20.28,65.63,45.21-29.44,45.22-65.63,45.22Zm0-85.37c-33.4,0-60.57,18.01-60.57,40.16s27.17,40.16,60.57,40.16,60.57-18.02,60.57-40.16-27.17-40.16-60.57-40.16Z"/>
    </g>
    <g class="cls-10">
      <path class="cls-9" d="m2063.8,1253.94c0,4.57-1.06,8.97-3.03,13.09-8.18-17.18-31.99-29.6-60.08-29.6s-51.9,12.42-60.08,29.6c-1.97-4.12-3.03-8.51-3.03-13.09,0-23.57,28.27-42.69,63.11-42.69s63.11,19.12,63.11,42.69Z"/>
      <path class="cls-16" d="m2060.76,1272.9l-2.28-4.79c-8.02-16.84-31.25-28.16-57.8-28.16s-49.77,11.32-57.79,28.16l-2.28,4.79-2.29-4.78c-2.17-4.55-3.28-9.32-3.28-14.18,0-24.93,29.44-45.21,65.63-45.21s65.64,20.28,65.64,45.21c0,4.85-1.1,9.62-3.28,14.18l-2.29,4.79Zm-60.08-59.12c-33.4,0-60.58,18.01-60.58,40.16,0,2.42.32,4.81.97,7.17,10.6-15.86,33.69-26.21,59.6-26.21s49,10.34,59.61,26.21c.65-2.35.97-4.75.97-7.17,0-22.14-27.18-40.16-60.58-40.16Z"/>
    </g>
    <path class="cls-16" d="m2000.69,1308.75c-42.18,0-75.22-24.07-75.22-54.81s33.04-54.8,75.22-54.8,75.22,24.07,75.22,54.8-33.04,54.81-75.22,54.81Zm0-85.37c-27.64,0-50.98,14-50.98,30.57s23.35,30.57,50.98,30.57,50.98-14,50.98-30.57-23.35-30.57-50.98-30.57Z"/>
    <g>
      <ellipse class="cls-13" cx="2471.2" cy="1238.97" rx="63.1" ry="42.69" transform="translate(-54.19 114.56) rotate(-2.63)"/>
      <path class="cls-16" d="m2468.8,1284.25c-15.69,0-30.5-3.82-42.11-10.92-13.01-7.96-20.49-19.09-21.05-31.35-.56-12.25,5.86-24.03,18.09-33.14,11.94-8.9,28.06-14.24,45.4-15.03,17.31-.79,33.88,3.04,46.58,10.81,13.01,7.96,20.49,19.09,21.05,31.35h0c.56,12.25-5.86,24.03-18.09,33.14-11.94,8.9-28.06,14.24-45.4,15.03-1.5.07-2.99.1-4.48.1Zm4.81-85.48c-1.41,0-2.83.03-4.25.1-16.34.75-31.47,5.73-42.6,14.04-10.84,8.08-16.55,18.33-16.06,28.85.48,10.53,7.1,20.21,18.64,27.27,11.85,7.25,27.38,10.83,43.71,10.07,16.34-.75,31.47-5.73,42.61-14.04,10.84-8.08,16.55-18.33,16.06-28.85h0c-.48-10.53-7.1-20.21-18.64-27.26-10.82-6.62-24.69-10.17-39.46-10.17Z"/>
    </g>
    <g class="cls-10">
      <path class="cls-9" d="m2534.23,1239.13c.42,9.15-3.45,17.81-10.39,25.12,0-.42,0-.85-.03-1.27-1.06-23.54-30.17-41.32-64.98-39.75-21.27.97-39.78,8.97-50.68,20.42-.09-22.99,26.9-42.72,61.11-44.29,34.81-1.58,63.92,16.21,64.98,39.78Z"/>
      <path class="cls-16" d="m2521.31,1270.57v-6.33c0-.36,0-.73-.02-1.1-.48-10.58-7.09-20.25-18.63-27.31-11.85-7.24-27.36-10.82-43.72-10.09-19.81.9-38.12,8.24-48.97,19.64l-4.34,4.55-.02-6.29c-.1-24.61,27.81-45.18,63.52-46.83,17.36-.76,33.89,3.06,46.58,10.83,13.02,7.96,20.49,19.1,21.05,31.36.44,9.55-3.39,18.88-11.09,26.97l-4.36,4.59Zm-58.18-49.98c15.72,0,30.55,3.82,42.17,10.93,11.27,6.89,18.39,16.16,20.45,26.47,4.21-5.9,6.26-12.29,5.96-18.75h0c-.47-10.53-7.09-20.22-18.63-27.28-11.85-7.25-27.37-10.82-43.71-10.09-29.16,1.34-53.37,16.6-57.92,35.31,11.88-9.6,29.02-15.66,47.27-16.49,1.48-.07,2.95-.1,4.42-.1Z"/>
    </g>
    <path class="cls-16" d="m2468.82,1293.84c-17.45,0-34.03-4.31-47.13-12.32-15.59-9.53-24.93-23.78-25.63-39.09-.7-15.31,7.29-30.35,21.94-41.27,13.45-10.03,31.46-16.04,50.69-16.92,19.19-.87,37.7,3.45,52.02,12.21,15.59,9.53,24.93,23.78,25.63,39.09h0c.7,15.31-7.29,30.35-21.94,41.27-13.45,10.03-31.46,16.04-50.69,16.92-1.64.08-3.27.11-4.89.11Zm4.66-85.48c-1.22,0-2.45.03-3.68.08-14.24.65-27.83,5.08-37.31,12.15-4.76,3.54-12.66,10.95-12.22,20.73.45,9.78,9,16.43,14.06,19.52,10.09,6.17,24.06,9.33,38.27,8.68,14.24-.65,27.84-5.08,37.31-12.15,4.76-3.55,12.66-10.95,12.22-20.73h0c-.45-9.78-9-16.43-14.06-19.52-9.21-5.63-21.65-8.76-34.59-8.76Z"/>
    <g>
      <ellipse class="cls-13" cx="2870.54" cy="1171.15" rx="63.1" ry="42.69" transform="translate(-51.21 134.36) rotate(-2.66)"/>
      <path class="cls-16" d="m2868.12,1216.42c-15.68,0-30.47-3.81-42.07-10.89-13.02-7.95-20.5-19.08-21.07-31.34-.57-12.25,5.85-24.03,18.08-33.15,11.93-8.91,28.05-14.25,45.39-15.06,36.13-1.69,66.5,17.22,67.66,42.12.57,12.25-5.85,24.03-18.08,33.15-11.93,8.9-28.05,14.25-45.39,15.06-1.51.07-3.02.1-4.52.1Zm4.84-85.49c-1.41,0-2.84.03-4.27.1-16.34.76-31.46,5.75-42.6,14.06-10.84,8.09-16.54,18.34-16.05,28.86.49,10.52,7.11,20.2,18.65,27.25,11.86,7.24,27.35,10.83,43.72,10.05,16.34-.76,31.46-5.75,42.6-14.06,10.84-8.09,16.54-18.34,16.05-28.86-.98-21.17-26.65-37.4-58.1-37.4Z"/>
    </g>
    <g class="cls-10">
      <path class="cls-9" d="m2933.59,1168.23c.76,16.42-12.33,31.33-32.14,39.38,5-6.48,7.7-13.85,7.33-21.54-1.09-23.54-30.2-41.32-65.01-39.72-10.54.48-20.39,2.7-28.96,6.21,10.24-13.36,30.33-22.96,53.77-24.05,34.81-1.64,63.92,16.15,65.01,39.72Z"/>
      <path class="cls-16" d="m2893.73,1213.49l5.71-7.41c4.78-6.2,7.13-13.07,6.81-19.88-1.03-22.11-28.97-38.88-62.37-37.31-9.89.45-19.62,2.54-28.12,6.02l-8.66,3.55,5.69-7.43c11.01-14.36,32.34-23.96,55.66-25.04,17.32-.81,33.88,3.01,46.59,10.78,13.02,7.95,20.5,19.09,21.07,31.35h0c.78,17.03-12.14,33.07-33.72,41.84l-8.67,3.53Zm-45.66-69.76c34.17,0,62.12,18.36,63.23,42.23.25,5.32-.86,10.65-3.25,15.73,14.95-8.24,23.6-20.53,23.01-33.33-.49-10.53-7.11-20.22-18.65-27.27-11.85-7.24-27.4-10.82-43.71-10.04-17.6.82-33.91,6.7-44.88,15.84,6.34-1.7,13.06-2.74,19.83-3.05,1.49-.07,2.96-.1,4.43-.1Z"/>
    </g>
    <path class="cls-16" d="m2868.14,1226.01c-17.43,0-33.99-4.3-47.08-12.3-15.59-9.52-24.94-23.77-25.65-39.07-.71-15.31,7.28-30.35,21.92-41.28,13.45-10.04,31.45-16.06,50.68-16.95,42.1-2.01,76.25,20.56,77.68,51.26.71,15.31-7.28,30.35-21.92,41.28-13.45,10.04-31.45,16.06-50.68,16.95-1.66.08-3.31.11-4.95.11Zm4.77-85.48c-1.25,0-2.51.03-3.78.09-14.24.66-27.83,5.1-37.3,12.17-4.75,3.55-12.66,10.96-12.21,20.73.45,9.78,9.01,16.42,14.07,19.51,10.09,6.16,24.07,9.31,38.27,8.66,14.24-.66,27.83-5.1,37.3-12.17,4.75-3.55,12.66-10.96,12.21-20.73-.73-15.79-22.59-28.26-48.57-28.26Z"/>
    <g>
      <ellipse class="cls-13" cx="1541.77" cy="1238.97" rx="42.69" ry="63.1" transform="translate(233.43 2722.34) rotate(-87.37)"/>
      <path class="cls-16" d="m1544.17,1284.25c-1.48,0-2.98-.03-4.48-.1-17.34-.8-33.46-6.14-45.4-15.03-12.23-9.12-18.65-20.89-18.09-33.14.56-12.25,8.04-23.39,21.05-31.35,12.7-7.77,29.26-11.6,46.58-10.81,17.34.8,33.46,6.14,45.4,15.03,12.23,9.12,18.65,20.89,18.09,33.14-.56,12.25-8.04,23.39-21.05,31.35-11.6,7.1-26.42,10.92-42.11,10.92Zm-4.81-85.48c-14.77,0-28.64,3.56-39.46,10.17-11.54,7.06-18.16,16.74-18.64,27.26h0c-.48,10.53,5.22,20.78,16.06,28.86,11.14,8.3,26.27,13.29,42.61,14.04,16.33.76,31.87-2.83,43.71-10.07,11.54-7.06,18.16-16.74,18.64-27.26.48-10.53-5.22-20.78-16.06-28.86-11.14-8.3-26.27-13.29-42.61-14.04-1.42-.07-2.84-.1-4.25-.1Z"/>
    </g>
    <g class="cls-10">
      <path class="cls-9" d="m1604.81,1241.85c-.52,11-7.12,20.72-17.54,27.78.67-2.24,1.06-4.57,1.18-6.94,1.06-23.54-26.27-43.93-61.08-45.53-18.57-.85-35.54,3.82-47.44,11.94,5.85-20,32.51-34.2,63.77-32.78,34.84,1.61,62.17,21.99,61.11,45.53Z"/>
      <path class="cls-16" d="m1582.83,1275.7l2.02-6.78c.61-2.03.97-4.17,1.08-6.35.99-22.1-25.32-41.34-58.67-42.88-17.29-.82-34.03,3.4-45.9,11.5l-5.84,3.98,1.98-6.78c6.29-21.51,34.2-36.09,66.32-34.6,36.15,1.67,64.64,23.28,63.52,48.18h0c-.53,11.41-7.16,21.98-18.65,29.76l-5.86,3.97Zm-59.68-61.16c1.44,0,2.89.03,4.34.1,36.13,1.67,64.61,23.28,63.49,48.18-.01.26-.03.52-.05.79,7-6.26,10.98-13.85,11.36-21.86.99-22.11-25.34-41.35-58.7-42.89-25.7-1.21-49.04,8.87-58.21,24.12,10.79-5.46,24.03-8.43,37.77-8.43Z"/>
    </g>
    <path class="cls-16" d="m1544.15,1293.84c-1.63,0-3.26-.04-4.89-.11-19.23-.88-37.23-6.89-50.69-16.92-14.65-10.92-22.64-25.96-21.94-41.27.7-15.31,10.04-29.55,25.63-39.09,14.32-8.75,32.82-13.09,52.02-12.21,19.23.88,37.23,6.89,50.69,16.92,14.65,10.92,22.64,25.96,21.94,41.27-.7,15.31-10.04,29.55-25.63,39.09-13.1,8.01-29.68,12.32-47.13,12.32Zm-4.66-85.48c-12.94,0-25.37,3.12-34.59,8.76-5.06,3.09-13.61,9.74-14.06,19.52h0c-.45,9.78,7.46,17.19,12.22,20.73,9.48,7.07,23.08,11.49,37.31,12.15,14.23.64,28.19-2.51,38.27-8.68,5.06-3.1,13.62-9.75,14.06-19.52.45-9.78-7.46-17.19-12.22-20.73-9.48-7.07-23.08-11.49-37.31-12.15-1.23-.06-2.46-.08-3.68-.08Zm-60.76,27.73h.05-.05Z"/>
    <g>
      <g>
        <ellipse class="cls-17" cx="1142.42" cy="1171.15" rx="42.69" ry="63.1" transform="translate(-80.44 2258.04) rotate(-87.34)"/>
        <path class="cls-16" d="m1144.79,1215.85c-1.47,0-2.95-.03-4.44-.1-17.22-.8-33.23-6.11-45.07-14.94-12.07-9.01-18.41-20.61-17.85-32.67,1.14-24.59,31.26-43.19,67.06-41.58,17.22.8,33.23,6.11,45.07,14.95,12.07,9.01,18.41,20.61,17.85,32.67-1.09,23.57-28.78,41.68-62.62,41.68Zm-4.77-85.48c-31.76,0-57.68,16.47-58.67,37.95-.5,10.72,5.28,21.15,16.28,29.35,11.22,8.37,26.46,13.41,42.91,14.17,33.63,1.59,61.93-15.41,62.97-37.85.5-10.72-5.28-21.14-16.28-29.35-11.22-8.38-26.46-13.41-42.91-14.17-1.44-.07-2.87-.1-4.29-.1Z"/>
      </g>
      <path class="cls-16" d="m1144.96,1226.01c-1.68,0-3.37-.04-5.08-.12-19.23-.89-37.23-6.91-50.68-16.95-14.64-10.93-22.63-25.97-21.92-41.28,1.43-30.7,35.6-53.26,77.68-51.26,19.23.89,37.23,6.91,50.68,16.95,14.64,10.93,22.63,25.97,21.92,41.28-1.37,29.46-32.84,51.38-72.6,51.38Zm-4.9-85.49c-25.98,0-47.83,12.47-48.57,28.26-.45,9.78,7.45,17.19,12.21,20.73,9.47,7.07,23.07,11.5,37.3,12.17,27.61,1.26,51.58-11.62,52.35-28.17.45-9.78-7.45-17.19-12.21-20.73-9.47-7.07-23.07-11.5-37.3-12.17-1.27-.06-2.53-.09-3.78-.09Z"/>
    </g>
    <g>
      <ellipse class="cls-13" cx="1142.42" cy="1171.15" rx="42.69" ry="63.1" transform="translate(-80.44 2258.04) rotate(-87.34)"/>
      <path class="cls-16" d="m1144.78,1216.42c-1.48,0-2.96-.03-4.46-.1-17.34-.8-33.45-6.15-45.39-15.06-12.22-9.13-18.64-20.9-18.08-33.15,1.16-24.9,31.5-43.77,67.66-42.12,17.34.81,33.45,6.15,45.39,15.06,12.22,9.12,18.65,20.9,18.08,33.15-1.11,23.87-29.05,42.23-63.2,42.23Zm-4.77-85.48c-31.45,0-57.12,16.24-58.1,37.4-.49,10.52,5.21,20.78,16.05,28.86,11.13,8.31,26.26,13.3,42.6,14.06,33.36,1.6,61.35-15.19,62.37-37.3.49-10.53-5.21-20.78-16.05-28.86-11.13-8.31-26.26-13.3-42.6-14.06-1.43-.07-2.86-.1-4.27-.1Z"/>
    </g>
    <g class="cls-10">
      <path class="cls-9" d="m1205.46,1174.08c-.79,17.18-16.51,31.27-38.48,36.99,6.42-6.27,10.3-13.88,10.69-22.18,1.09-23.54-26.24-43.96-61.05-45.56-9.45-.42-18.45.55-26.6,2.73,11.69-11.51,31.84-18.6,54.38-17.54,34.81,1.61,62.14,21.99,61.05,45.56Z"/>
      <path class="cls-16" d="m1158.39,1215.92l6.82-6.66c6.15-6,9.59-13.09,9.94-20.49.49-10.52-5.21-20.77-16.05-28.86-11.13-8.31-26.26-13.31-42.59-14.06-9.09-.41-17.76.49-25.83,2.64l-9.26,2.48,6.83-6.72c12.7-12.5,33.73-19.3,56.27-18.27,17.33.8,33.45,6.15,45.38,15.05,12.22,9.12,18.64,20.9,18.08,33.16h0c-.81,17.7-16.66,33.14-40.37,39.32l-9.23,2.4Zm-46.11-75.22c1.48,0,2.96.03,4.46.1,17.34.8,33.45,6.15,45.39,15.06,12.22,9.13,18.64,20.9,18.08,33.15-.29,5.97-2.24,11.73-5.72,16.98,16.93-6.61,27.83-18.63,28.45-32.03h0c.49-10.53-5.21-20.79-16.05-28.88-11.13-8.3-26.25-13.29-42.59-14.05-16.9-.8-32.79,3.05-44.47,10.49,4.05-.55,8.21-.83,12.46-.83Z"/>
    </g>
    <path class="cls-16" d="m1144.96,1226.01c-1.68,0-3.37-.04-5.08-.12-19.23-.89-37.23-6.91-50.68-16.95-14.64-10.93-22.63-25.97-21.92-41.28,1.43-30.7,35.6-53.26,77.68-51.26,19.23.89,37.23,6.91,50.68,16.95,14.64,10.93,22.63,25.97,21.92,41.28-1.37,29.46-32.84,51.38-72.6,51.38Zm-4.9-85.49c-25.98,0-47.83,12.47-48.57,28.26-.45,9.78,7.45,17.19,12.21,20.73,9.47,7.07,23.07,11.5,37.3,12.17,27.61,1.26,51.58-11.62,52.35-28.17.45-9.78-7.45-17.19-12.21-20.73-9.47-7.07-23.07-11.5-37.3-12.17-1.27-.06-2.53-.09-3.78-.09Z"/>
    <path class="cls-16" d="m2807.16,1314.68c-3.91,0-7.75-1.89-10.09-5.39-95.05-142.24-284.26-211.98-286.16-212.67-6.29-2.28-9.55-9.22-7.27-15.52,2.28-6.29,9.22-9.56,15.51-7.28,8.06,2.91,198.53,73.02,298.07,221.99,3.72,5.57,2.22,13.09-3.34,16.81-2.07,1.38-4.41,2.04-6.72,2.04Z"/>
    <path class="cls-16" d="m1204.85,1314.68c-2.31,0-4.65-.66-6.72-2.04-5.56-3.72-7.06-11.24-3.34-16.81,91.22-136.52,260.41-207.4,293.4-220.22,6.24-2.43,13.26.66,15.68,6.9,2.43,6.24-.67,13.26-6.9,15.68-31.8,12.36-194.85,80.63-282.03,211.1-2.34,3.5-6.17,5.39-10.09,5.39Z"/>
    <g class="cls-5">
      <path class="cls-2" d="m1471.27,872.01s-17.18-106.35,73.46-228.03c77.42-103.93,130.64-40.72,97.45,20.4-45.54,83.86-65.49,163.91-82.07,249.1-9.49,48.75-84.33,70.97-88.83-41.47Z"/>
    </g>
    <g class="cls-5">
      <path class="cls-2" d="m1695.78,559.42c-18.4,8.55-75.45,15.25-64.21-46.55,11.24-61.8,78.12-79.46,102.21-58.1,14.06,12.47,12.96,80.97-38,104.65Z"/>
    </g>
    <g class="cls-5">
      <path class="cls-2" d="m1001.8,1048.09c59.45-34.92,152.89-58.64,238.23-54.42,77.25,3.82-63.63,31.18-113.16,42.82-35.68,8.39-102.05,33.78-133.41,39.64-31.36,5.86-29.26-5.96,8.34-28.04Z"/>
    </g>
    <g class="cls-10">
      <path class="cls-16" d="m2587.23,1022.98c0-209.34-94.95-611.99-459.37-706.37-.15-.11-.25-.19-.39-.3,11.86,9.25,56.41,45.02,109.84,100.96,213.8,223.83,77.37,595.62-230.46,628.02-187.08,19.69-408.95,18.89-623.61-40.4-5.77-1.59-11.36-3.06-16.97-4.53-.03,2.57-.06,5.15-.06,7.67,0,67.96,280.03,123.06,625.47,123.06,250.14,0,465.95-28.89,566.01-70.64,19.17-11.81,29.55-24.4,29.55-37.46Z"/>
    </g>
  </g>
</svg>