<?xml version="1.0" encoding="iso-8859-1"?>
<!-- Generator: Adobe Illustrator 19.0.0, SVG Export Plug-In . SVG Version: 6.00 Build 0)  -->
<svg
	version="1.1"
	id="Layer_1"
	xmlns="http://www.w3.org/2000/svg"
	xmlns:xlink="http://www.w3.org/1999/xlink"
	x="0px"
	y="0px"
	viewBox="0 0 512 512"
	style="enable-background: new 0 0 512 512"
	xml:space="preserve"
>
	<g>
		<g>
			<g>
				<path
					d="M394.667,64c-13.167,0-26.333,2.292-39.125,6.802c-4.25,1.51-7.104,5.542-7.104,10.063c0,4.521,2.854,8.552,7.104,10.052
				c38.292,13.552,64.021,49.885,64.021,90.417s-25.729,76.865-64.021,90.417c-4.25,1.5-7.104,5.531-7.104,10.052
				c0,4.521,2.854,8.552,7.104,10.063c12.792,4.51,25.958,6.802,39.125,6.802c64.688,0,117.333-52.635,117.333-117.333
				S459.354,64,394.667,64z"
				/>
				<circle cx="192" cy="160" r="96" />
				<path
					d="M340.438,326.729C312.5,312.26,256.104,288,192,288S71.5,312.26,43.563,326.729C16.688,340.677,0,368.146,0,398.417
				v6.917C0,428.865,19.146,448,42.667,448h298.667C364.854,448,384,428.865,384,405.333v-6.917
				C384,368.146,367.313,340.677,340.438,326.729z"
				/>
			</g>
		</g>
	</g>
	<g></g>
	<g></g>
	<g></g>
	<g></g>
	<g></g>
	<g></g>
	<g></g>
	<g></g>
	<g></g>
	<g></g>
	<g></g>
	<g></g>
	<g></g>
	<g></g>
	<g></g>
</svg>
